<?xml version="1.0" standalone="no"?>
<!DOCTYPE svg PUBLIC "-//W3C//DTD SVG 1.1//EN" "http://www.w3.org/Graphics/SVG/1.1/DTD/svg11.dtd" >
<svg xmlns="http://www.w3.org/2000/svg">
<defs>
  <font id="feather" horiz-adv-x="1000">
    <font-face font-family="feather"
      units-per-em="1000" ascent="1000"
      descent="0" />
    <missing-glyph horiz-adv-x="0" />
    <glyph glyph-name="activity"
      unicode="&#x61;&#x63;&#x74;&#x69;&#x76;&#x69;&#x74;&#x79;"
      horiz-adv-x="1000" d="M625 83.3333333333334C608.3333333333333 83.3333333333334 591.6666666666666 95.8333333333334 587.5 112.5L375 741.6666666666667L287.5 483.3333333333334C283.3333333333333 470.8333333333334 266.6666666666667 458.3333333333334 250 458.3333333333334H83.3333333333333C58.3333333333333 458.3333333333334 41.6666666666667 475 41.6666666666667 500S58.3333333333333 541.6666666666667 83.3333333333333 541.6666666666667H220.8333333333333L337.5 887.5C341.6666666666667 904.1666666666669 358.3333333333333 916.6666666666666 375 916.6666666666666S408.3333333333333 904.1666666666669 412.5 887.5L625 258.3333333333334L712.5 516.6666666666666C716.6666666666667 533.3333333333333 733.3333333333334 545.8333333333333 750 545.8333333333333H916.6666666666666C941.6666666666666 545.8333333333333 958.3333333333331 529.1666666666665 958.3333333333331 504.1666666666666S941.6666666666666 462.4999999999999 916.6666666666666 462.4999999999999H779.1666666666666L662.4999999999999 116.6666666666666C658.3333333333334 95.8333333333334 641.6666666666666 83.3333333333334 625 83.3333333333334z" />
    <glyph glyph-name="airplay"
      unicode="&#x61;&#x69;&#x72;&#x70;&#x6C;&#x61;&#x79;"
      horiz-adv-x="1000" d="M833.3333333333333 250H791.6666666666666C766.6666666666665 250 750 266.6666666666667 750 291.6666666666668S766.6666666666665 333.3333333333334 791.6666666666666 333.3333333333334H833.3333333333333C858.3333333333334 333.3333333333334 875 350 875 375V791.6666666666667C875 816.6666666666666 858.3333333333334 833.3333333333334 833.3333333333333 833.3333333333334H166.6666666666667C141.6666666666667 833.3333333333334 125 816.6666666666666 125 791.6666666666667V375C125 350 141.6666666666667 333.3333333333334 166.6666666666667 333.3333333333334H208.3333333333333C233.3333333333333 333.3333333333334 250 316.6666666666668 250 291.6666666666668S233.3333333333333 250 208.3333333333333 250H166.6666666666667C95.8333333333333 250 41.6666666666667 304.1666666666668 41.6666666666667 375V791.6666666666667C41.6666666666667 862.5 95.8333333333333 916.6666666666666 166.6666666666667 916.6666666666666H833.3333333333333C904.1666666666666 916.6666666666666 958.3333333333331 862.5 958.3333333333331 791.6666666666667V375C958.3333333333331 304.1666666666668 904.1666666666666 250 833.3333333333333 250zM708.3333333333333 83.3333333333334H291.6666666666667C275 83.3333333333334 262.5 91.6666666666667 254.1666666666667 108.3333333333335C245.8333333333333 125 250 141.6666666666669 258.3333333333333 154.1666666666669L466.6666666666666 404.1666666666669C483.3333333333333 425.0000000000001 516.6666666666666 425.0000000000001 529.1666666666666 404.1666666666669L737.4999999999999 154.1666666666669C745.8333333333333 141.6666666666669 750 125.0000000000002 741.6666666666666 108.3333333333335C737.4999999999999 91.6666666666667 724.9999999999999 83.3333333333334 708.3333333333333 83.3333333333334zM379.1666666666667 166.6666666666668H616.6666666666666L500 308.3333333333333L379.1666666666667 166.6666666666668z" />
    <glyph glyph-name="alert_circle"
      unicode="&#x61;&#x6C;&#x65;&#x72;&#x74;&#x5F;&#x63;&#x69;&#x72;&#x63;&#x6C;&#x65;"
      horiz-adv-x="1000" d="M500 41.6666666666667C245.8333333333334 41.6666666666667 41.6666666666667 245.8333333333334 41.6666666666667 500S245.8333333333334 958.3333333333334 500 958.3333333333334S958.3333333333331 754.1666666666666 958.3333333333331 500S754.1666666666666 41.6666666666667 500 41.6666666666667zM500 875C291.6666666666667 875 125 708.3333333333334 125 500C125 291.6666666666668 291.6666666666667 125 500 125C708.3333333333333 125 875 291.6666666666668 875 500C875 708.3333333333334 708.3333333333333 875 500 875zM500 458.3333333333334C475 458.3333333333334 458.3333333333333 475 458.3333333333333 500V666.6666666666667C458.3333333333333 691.6666666666667 475 708.3333333333334 500 708.3333333333334S541.6666666666666 691.6666666666667 541.6666666666666 666.6666666666667V500C541.6666666666666 475 525 458.3333333333334 500 458.3333333333334zM500 291.6666666666668C475 291.6666666666668 458.3333333333333 308.3333333333333 458.3333333333333 333.3333333333334S475 375 500 375H500C525 375 541.6666666666666 358.3333333333334 541.6666666666666 333.3333333333334S525 291.6666666666668 500 291.6666666666668z" />
    <glyph glyph-name="alert_octagon"
      unicode="&#x61;&#x6C;&#x65;&#x72;&#x74;&#x5F;&#x6F;&#x63;&#x74;&#x61;&#x67;&#x6F;&#x6E;"
      horiz-adv-x="1000" d="M670.8333333333334 41.6666666666667H329.1666666666667C316.6666666666667 41.6666666666667 308.3333333333333 45.8333333333335 300 54.1666666666667L54.1666666666667 300.0000000000001C45.8333333333333 304.1666666666668 41.6666666666667 316.6666666666668 41.6666666666667 329.1666666666667V670.8333333333333C41.6666666666667 683.3333333333333 45.8333333333333 691.6666666666667 54.1666666666667 700L300 945.8333333333334C304.1666666666667 954.1666666666666 316.6666666666667 958.3333333333334 329.1666666666667 958.3333333333334H675.0000000000001C687.5000000000001 958.3333333333334 695.8333333333334 954.1666666666666 704.1666666666667 945.8333333333334L950.0000000000002 700C954.1666666666666 695.8333333333334 958.3333333333331 683.3333333333334 958.3333333333331 670.8333333333333V324.9999999999999C958.3333333333331 312.4999999999999 954.1666666666666 304.1666666666667 945.8333333333331 295.8333333333333L699.9999999999999 49.9999999999999C695.8333333333333 45.8333333333335 683.3333333333333 41.6666666666667 670.8333333333334 41.6666666666667zM345.8333333333334 125H658.3333333333334L879.1666666666666 345.8333333333334V654.1666666666666L654.1666666666666 875H345.8333333333334L125 654.1666666666666V341.6666666666667L345.8333333333334 125zM500 458.3333333333334C475 458.3333333333334 458.3333333333333 475 458.3333333333333 500V666.6666666666667C458.3333333333333 691.6666666666667 475 708.3333333333334 500 708.3333333333334S541.6666666666666 691.6666666666667 541.6666666666666 666.6666666666667V500C541.6666666666666 475 525 458.3333333333334 500 458.3333333333334zM500 291.6666666666668C475 291.6666666666668 458.3333333333333 308.3333333333333 458.3333333333333 333.3333333333334S475 375 500 375H500C525 375 541.6666666666666 358.3333333333334 541.6666666666666 333.3333333333334S525 291.6666666666668 500 291.6666666666668z" />
    <glyph glyph-name="alert_triangle"
      unicode="&#x61;&#x6C;&#x65;&#x72;&#x74;&#x5F;&#x74;&#x72;&#x69;&#x61;&#x6E;&#x67;&#x6C;&#x65;"
      horiz-adv-x="1000" d="M145.8333333333333 83.3333333333334C125 83.3333333333334 104.1666666666667 87.5000000000001 83.3333333333333 100C25 133.3333333333334 4.1666666666667 212.5 37.5 270.8333333333334L391.6666666666667 862.5C391.6666666666667 862.5 391.6666666666667 862.5 391.6666666666667 862.5C400 879.1666666666666 416.6666666666667 895.8333333333334 433.3333333333333 904.1666666666669C462.4999999999999 920.8333333333334 495.8333333333333 925 529.1666666666666 916.6666666666669C562.5 908.3333333333334 587.5 887.5 608.3333333333333 858.3333333333334L958.3333333333331 270.8333333333334C970.8333333333331 250 974.9999999999998 229.1666666666668 974.9999999999998 208.3333333333334C974.9999999999998 175 962.4999999999998 141.6666666666666 937.5 120.8333333333334C916.6666666666666 95.8333333333334 887.5 83.3333333333334 854.1666666666666 83.3333333333334H145.8333333333333zM462.4999999999999 816.6666666666666L112.5 229.1666666666668C100 208.3333333333334 108.3333333333333 183.3333333333334 129.1666666666667 170.8333333333335C133.3333333333334 166.6666666666668 141.6666666666667 166.6666666666668 145.8333333333333 166.6666666666668H849.9999999999999C862.4999999999999 166.6666666666668 870.8333333333333 170.8333333333335 879.1666666666665 179.1666666666668C887.4999999999999 187.5 891.6666666666665 195.8333333333334 891.6666666666665 208.3333333333334C891.6666666666665 216.6666666666666 891.6666666666665 220.8333333333334 887.4999999999999 229.1666666666668L537.5 816.6666666666666C525 837.5 500 841.6666666666667 479.1666666666666 833.3333333333334C470.8333333333333 829.1666666666667 466.6666666666666 825 462.4999999999999 816.6666666666666zM500 416.6666666666668C475 416.6666666666668 458.3333333333333 433.3333333333334 458.3333333333333 458.3333333333334V625C458.3333333333333 650 475 666.6666666666667 500 666.6666666666667S541.6666666666666 650 541.6666666666666 625V458.3333333333334C541.6666666666666 433.3333333333334 525 416.6666666666668 500 416.6666666666668zM500 250C475 250 458.3333333333333 266.6666666666667 458.3333333333333 291.6666666666668S475 333.3333333333334 500 333.3333333333334H500C525 333.3333333333334 541.6666666666666 316.6666666666668 541.6666666666666 291.6666666666668S525 250 500 250z" />
    <glyph glyph-name="align_center"
      unicode="&#x61;&#x6C;&#x69;&#x67;&#x6E;&#x5F;&#x63;&#x65;&#x6E;&#x74;&#x65;&#x72;"
      horiz-adv-x="1000" d="M750 541.6666666666667H250C225 541.6666666666667 208.3333333333333 558.3333333333334 208.3333333333333 583.3333333333334S225 625 250 625H750C775 625 791.6666666666666 608.3333333333333 791.6666666666666 583.3333333333334S775 541.6666666666667 750 541.6666666666667zM875 708.3333333333334H125C100 708.3333333333334 83.3333333333333 725 83.3333333333333 750S100 791.6666666666667 125 791.6666666666667H875C900 791.6666666666667 916.6666666666666 775 916.6666666666666 750S900 708.3333333333334 875 708.3333333333334zM875 375H125C100 375 83.3333333333333 391.6666666666668 83.3333333333333 416.6666666666668S100 458.3333333333334 125 458.3333333333334H875C900 458.3333333333334 916.6666666666666 441.6666666666667 916.6666666666666 416.6666666666668S900 375 875 375zM750 208.3333333333334H250C225 208.3333333333334 208.3333333333333 225 208.3333333333333 250S225 291.6666666666668 250 291.6666666666668H750C775 291.6666666666668 791.6666666666666 275.0000000000001 791.6666666666666 250S775 208.3333333333334 750 208.3333333333334z" />
    <glyph glyph-name="align_justify"
      unicode="&#x61;&#x6C;&#x69;&#x67;&#x6E;&#x5F;&#x6A;&#x75;&#x73;&#x74;&#x69;&#x66;&#x79;"
      horiz-adv-x="1000" d="M875 541.6666666666667H125C100 541.6666666666667 83.3333333333333 558.3333333333334 83.3333333333333 583.3333333333334S100 625 125 625H875C900 625 916.6666666666666 608.3333333333333 916.6666666666666 583.3333333333334S900 541.6666666666667 875 541.6666666666667zM875 708.3333333333334H125C100 708.3333333333334 83.3333333333333 725 83.3333333333333 750S100 791.6666666666667 125 791.6666666666667H875C900 791.6666666666667 916.6666666666666 775 916.6666666666666 750S900 708.3333333333334 875 708.3333333333334zM875 375H125C100 375 83.3333333333333 391.6666666666668 83.3333333333333 416.6666666666668S100 458.3333333333334 125 458.3333333333334H875C900 458.3333333333334 916.6666666666666 441.6666666666667 916.6666666666666 416.6666666666668S900 375 875 375zM875 208.3333333333334H125C100 208.3333333333334 83.3333333333333 225 83.3333333333333 250S100 291.6666666666668 125 291.6666666666668H875C900 291.6666666666668 916.6666666666666 275.0000000000001 916.6666666666666 250S900 208.3333333333334 875 208.3333333333334z" />
    <glyph glyph-name="align_left"
      unicode="&#x61;&#x6C;&#x69;&#x67;&#x6E;&#x5F;&#x6C;&#x65;&#x66;&#x74;"
      horiz-adv-x="1000" d="M708.3333333333333 541.6666666666667H125C100 541.6666666666667 83.3333333333333 558.3333333333334 83.3333333333333 583.3333333333334S100 625 125 625H708.3333333333333C733.3333333333334 625 750 608.3333333333333 750 583.3333333333334S733.3333333333334 541.6666666666667 708.3333333333333 541.6666666666667zM875 708.3333333333334H125C100 708.3333333333334 83.3333333333333 725 83.3333333333333 750S100 791.6666666666667 125 791.6666666666667H875C900 791.6666666666667 916.6666666666666 775 916.6666666666666 750S900 708.3333333333334 875 708.3333333333334zM875 375H125C100 375 83.3333333333333 391.6666666666668 83.3333333333333 416.6666666666668S100 458.3333333333334 125 458.3333333333334H875C900 458.3333333333334 916.6666666666666 441.6666666666667 916.6666666666666 416.6666666666668S900 375 875 375zM708.3333333333333 208.3333333333334H125C100 208.3333333333334 83.3333333333333 225 83.3333333333333 250S100 291.6666666666668 125 291.6666666666668H708.3333333333333C733.3333333333334 291.6666666666668 750 275.0000000000001 750 250S733.3333333333334 208.3333333333334 708.3333333333333 208.3333333333334z" />
    <glyph glyph-name="align_right"
      unicode="&#x61;&#x6C;&#x69;&#x67;&#x6E;&#x5F;&#x72;&#x69;&#x67;&#x68;&#x74;"
      horiz-adv-x="1000" d="M875 541.6666666666667H291.6666666666667C266.6666666666667 541.6666666666667 250 558.3333333333334 250 583.3333333333334S266.6666666666667 625 291.6666666666667 625H875C900 625 916.6666666666666 608.3333333333333 916.6666666666666 583.3333333333334S900 541.6666666666667 875 541.6666666666667zM875 708.3333333333334H125C100 708.3333333333334 83.3333333333333 725 83.3333333333333 750S100 791.6666666666667 125 791.6666666666667H875C900 791.6666666666667 916.6666666666666 775 916.6666666666666 750S900 708.3333333333334 875 708.3333333333334zM875 375H125C100 375 83.3333333333333 391.6666666666668 83.3333333333333 416.6666666666668S100 458.3333333333334 125 458.3333333333334H875C900 458.3333333333334 916.6666666666666 441.6666666666667 916.6666666666666 416.6666666666668S900 375 875 375zM875 208.3333333333334H291.6666666666667C266.6666666666667 208.3333333333334 250 225 250 250S266.6666666666667 291.6666666666668 291.6666666666667 291.6666666666668H875C900 291.6666666666668 916.6666666666666 275.0000000000001 916.6666666666666 250S900 208.3333333333334 875 208.3333333333334z" />
    <glyph glyph-name="anchor"
      unicode="&#x61;&#x6E;&#x63;&#x68;&#x6F;&#x72;"
      horiz-adv-x="1000" d="M500 625C408.3333333333333 625 333.3333333333333 700 333.3333333333333 791.6666666666667S408.3333333333333 958.3333333333334 500 958.3333333333334C591.6666666666666 958.3333333333334 666.6666666666666 883.3333333333334 666.6666666666666 791.6666666666667S591.6666666666666 625 500 625zM500 875C454.1666666666666 875 416.6666666666667 837.5 416.6666666666667 791.6666666666667S454.1666666666666 708.3333333333334 500 708.3333333333334C545.8333333333333 708.3333333333334 583.3333333333333 745.8333333333334 583.3333333333333 791.6666666666667S545.8333333333333 875 500 875zM500 41.6666666666667C475 41.6666666666667 458.3333333333333 58.3333333333334 458.3333333333333 83.3333333333334V666.6666666666667C458.3333333333333 691.6666666666667 475 708.3333333333334 500 708.3333333333334S541.6666666666666 691.6666666666667 541.6666666666666 666.6666666666667V83.3333333333334C541.6666666666666 58.3333333333334 525 41.6666666666667 500 41.6666666666667zM500 41.6666666666667C245.8333333333334 41.6666666666667 41.6666666666667 245.8333333333334 41.6666666666667 500C41.6666666666667 525 58.3333333333333 541.6666666666667 83.3333333333333 541.6666666666667H208.3333333333333C233.3333333333333 541.6666666666667 250 525 250 500S233.3333333333333 458.3333333333334 208.3333333333333 458.3333333333334H129.1666666666667C150 270.8333333333334 308.3333333333333 125 500 125C691.6666666666667 125 849.9999999999999 270.8333333333334 870.8333333333333 458.3333333333334H791.6666666666666C766.6666666666665 458.3333333333334 750 475 750 500S766.6666666666665 541.6666666666667 791.6666666666666 541.6666666666667H916.6666666666666C941.6666666666666 541.6666666666667 958.3333333333331 525 958.3333333333331 500C958.3333333333331 245.8333333333334 754.1666666666666 41.6666666666667 500 41.6666666666667z" />
    <glyph glyph-name="aperture"
      unicode="&#x61;&#x70;&#x65;&#x72;&#x74;&#x75;&#x72;&#x65;"
      horiz-adv-x="1000" d="M500 41.6666666666667C245.8333333333334 41.6666666666667 41.6666666666667 245.8333333333334 41.6666666666667 500S245.8333333333334 958.3333333333334 500 958.3333333333334S958.3333333333331 754.1666666666666 958.3333333333331 500S754.1666666666666 41.6666666666667 500 41.6666666666667zM500 875C291.6666666666667 875 125 708.3333333333334 125 500C125 291.6666666666668 291.6666666666667 125 500 125C708.3333333333333 125 875 291.6666666666668 875 500C875 708.3333333333334 708.3333333333333 875 500 875zM837.5 212.5000000000001C825 212.5000000000001 808.3333333333334 220.8333333333334 800.0000000000001 233.3333333333335L562.5000000000001 645.8333333333335C550.0000000000001 666.6666666666667 558.3333333333335 691.6666666666667 579.1666666666667 704.1666666666667C600.0000000000001 716.6666666666667 625.0000000000001 708.3333333333335 637.5000000000001 687.5000000000001L875.0000000000001 275.0000000000001C887.5000000000001 254.1666666666668 879.1666666666669 229.1666666666668 858.3333333333335 216.6666666666669C849.9999999999999 212.5000000000001 841.6666666666666 212.5000000000001 837.5 212.5000000000001zM883.3333333333333 625H404.1666666666667C379.1666666666667 625 362.5 641.6666666666667 362.5 666.6666666666667S379.1666666666667 708.3333333333334 404.1666666666667 708.3333333333334H883.3333333333333C908.3333333333331 708.3333333333334 924.9999999999998 691.6666666666667 924.9999999999998 666.6666666666667S904.1666666666666 625 883.3333333333333 625zM308.3333333333333 458.3333333333334C300 458.3333333333334 295.8333333333333 458.3333333333334 287.5 462.5C266.6666666666667 475 262.5 500 270.8333333333333 520.8333333333334L508.3333333333333 933.3333333333334C520.8333333333333 954.1666666666669 545.8333333333333 958.3333333333334 566.6666666666666 950C587.5 937.5 591.6666666666666 912.5 583.3333333333333 891.6666666666667L345.8333333333334 479.1666666666667C337.5 466.6666666666666 320.8333333333333 458.3333333333334 308.3333333333333 458.3333333333334zM404.1666666666667 291.6666666666668C391.6666666666666 291.6666666666668 375 300 366.6666666666667 312.5L129.1666666666667 725C116.6666666666667 745.8333333333334 125 770.8333333333334 145.8333333333333 783.3333333333334C166.6666666666667 795.8333333333334 191.6666666666666 787.5 204.1666666666667 766.6666666666666L441.6666666666667 354.1666666666668C454.1666666666667 333.3333333333334 445.8333333333334 308.3333333333333 425 295.8333333333335C416.6666666666667 291.6666666666668 412.5 291.6666666666668 404.1666666666667 291.6666666666668zM595.8333333333334 291.6666666666668H116.6666666666667C91.6666666666667 291.6666666666668 75 308.3333333333333 75 333.3333333333334S91.6666666666667 375 116.6666666666667 375H595.8333333333334C620.8333333333333 375 637.5 358.3333333333334 637.5 333.3333333333334S620.8333333333333 291.6666666666668 595.8333333333334 291.6666666666668zM454.1666666666666 45.8333333333335C445.8333333333334 45.8333333333335 441.6666666666667 45.8333333333335 433.3333333333333 50.0000000000002C412.5 62.5000000000002 408.3333333333333 87.5000000000001 416.6666666666667 108.3333333333335L654.1666666666666 520.8333333333335C666.6666666666666 541.6666666666667 691.6666666666665 545.8333333333335 712.4999999999999 537.5000000000001C733.3333333333333 525.0000000000001 737.4999999999999 500.0000000000001 729.1666666666665 479.1666666666667L491.6666666666665 66.6666666666667C483.3333333333333 50 466.6666666666666 45.8333333333335 454.1666666666666 45.8333333333335z" />
    <glyph glyph-name="archive"
      unicode="&#x61;&#x72;&#x63;&#x68;&#x69;&#x76;&#x65;"
      horiz-adv-x="1000" d="M875 83.3333333333334H125C100 83.3333333333334 83.3333333333333 100 83.3333333333333 125V666.6666666666667C83.3333333333333 691.6666666666667 100 708.3333333333334 125 708.3333333333334S166.6666666666667 691.6666666666667 166.6666666666667 666.6666666666667V166.6666666666668H833.3333333333333V666.6666666666667C833.3333333333333 691.6666666666667 849.9999999999999 708.3333333333334 875 708.3333333333334S916.6666666666666 691.6666666666667 916.6666666666666 666.6666666666667V125C916.6666666666666 100 900 83.3333333333334 875 83.3333333333334zM958.3333333333331 625H41.6666666666667C16.6666666666667 625 0 641.6666666666667 0 666.6666666666667V875C0 900 16.6666666666667 916.6666666666666 41.6666666666667 916.6666666666666H958.3333333333331C983.3333333333334 916.6666666666666 1000 900 1000 875V666.6666666666667C1000 641.6666666666667 983.3333333333334 625 958.3333333333331 625zM83.3333333333333 708.3333333333334H916.6666666666666V833.3333333333334H83.3333333333333V708.3333333333334zM583.3333333333333 458.3333333333334H416.6666666666667C391.6666666666667 458.3333333333334 375 475 375 500S391.6666666666667 541.6666666666667 416.6666666666667 541.6666666666667H583.3333333333333C608.3333333333333 541.6666666666667 625 525 625 500S608.3333333333333 458.3333333333334 583.3333333333333 458.3333333333334z" />
    <glyph glyph-name="arrow_down_circle"
      unicode="&#x61;&#x72;&#x72;&#x6F;&#x77;&#x5F;&#x64;&#x6F;&#x77;&#x6E;&#x5F;&#x63;&#x69;&#x72;&#x63;&#x6C;&#x65;"
      horiz-adv-x="1000" d="M500 41.6666666666667C245.8333333333334 41.6666666666667 41.6666666666667 245.8333333333334 41.6666666666667 500S245.8333333333334 958.3333333333334 500 958.3333333333334S958.3333333333331 754.1666666666666 958.3333333333331 500S754.1666666666666 41.6666666666667 500 41.6666666666667zM500 875C291.6666666666667 875 125 708.3333333333334 125 500C125 291.6666666666668 291.6666666666667 125 500 125C708.3333333333333 125 875 291.6666666666668 875 500C875 708.3333333333334 708.3333333333333 875 500 875zM500 291.6666666666668C487.4999999999999 291.6666666666668 479.1666666666666 295.8333333333335 470.8333333333333 304.1666666666668L304.1666666666667 470.8333333333334C287.5 487.5000000000001 287.5 512.5 304.1666666666667 529.1666666666667S345.8333333333334 545.8333333333335 362.5 529.1666666666667L500 391.6666666666668L637.5 529.1666666666667C654.1666666666666 545.8333333333335 679.1666666666666 545.8333333333335 695.8333333333333 529.1666666666667S712.4999999999999 487.5000000000001 695.8333333333333 470.8333333333335L529.1666666666666 304.1666666666669C520.8333333333333 295.8333333333335 512.5 291.6666666666668 500 291.6666666666668zM500 291.6666666666668C475 291.6666666666668 458.3333333333333 308.3333333333333 458.3333333333333 333.3333333333334V666.6666666666667C458.3333333333333 691.6666666666667 475 708.3333333333334 500 708.3333333333334S541.6666666666666 691.6666666666667 541.6666666666666 666.6666666666667V333.3333333333334C541.6666666666666 308.3333333333333 525 291.6666666666668 500 291.6666666666668z" />
    <glyph glyph-name="arrow_down_left"
      unicode="&#x61;&#x72;&#x72;&#x6F;&#x77;&#x5F;&#x64;&#x6F;&#x77;&#x6E;&#x5F;&#x6C;&#x65;&#x66;&#x74;"
      horiz-adv-x="1000" d="M291.6666666666667 250C279.1666666666667 250 270.8333333333333 254.1666666666668 262.5 262.5000000000001C245.8333333333333 279.1666666666667 245.8333333333333 304.1666666666668 262.5 320.8333333333334L679.1666666666666 737.5C695.8333333333333 754.1666666666666 720.8333333333334 754.1666666666666 737.4999999999999 737.5S754.1666666666665 695.8333333333333 737.4999999999999 679.1666666666666L320.8333333333333 262.4999999999999C312.5 254.1666666666668 304.1666666666667 250 291.6666666666667 250zM708.3333333333333 250H291.6666666666667C266.6666666666667 250 250 266.6666666666667 250 291.6666666666668V708.3333333333334C250 733.3333333333333 266.6666666666667 750 291.6666666666667 750S333.3333333333333 733.3333333333333 333.3333333333333 708.3333333333334V333.3333333333334H708.3333333333333C733.3333333333334 333.3333333333334 750 316.6666666666668 750 291.6666666666668S733.3333333333334 250 708.3333333333333 250z" />
    <glyph glyph-name="arrow_down_right"
      unicode="&#x61;&#x72;&#x72;&#x6F;&#x77;&#x5F;&#x64;&#x6F;&#x77;&#x6E;&#x5F;&#x72;&#x69;&#x67;&#x68;&#x74;"
      horiz-adv-x="1000" d="M708.3333333333333 250C695.8333333333333 250 687.5 254.1666666666668 679.1666666666666 262.5000000000001L262.5 679.1666666666667C245.8333333333334 695.8333333333334 245.8333333333334 720.8333333333334 262.5 737.5S304.1666666666667 754.1666666666667 320.8333333333334 737.5L737.5000000000001 320.8333333333335C754.1666666666666 304.1666666666669 754.1666666666666 279.1666666666669 737.5000000000001 262.5000000000003C729.1666666666666 254.1666666666668 720.8333333333334 250 708.3333333333333 250zM708.3333333333333 250H291.6666666666667C266.6666666666667 250 250 266.6666666666667 250 291.6666666666668S266.6666666666667 333.3333333333334 291.6666666666667 333.3333333333334H666.6666666666666V708.3333333333334C666.6666666666666 733.3333333333333 683.3333333333333 750 708.3333333333333 750S750 733.3333333333333 750 708.3333333333334V291.6666666666668C750 266.6666666666667 733.3333333333334 250 708.3333333333333 250z" />
    <glyph glyph-name="arrow_down"
      unicode="&#x61;&#x72;&#x72;&#x6F;&#x77;&#x5F;&#x64;&#x6F;&#x77;&#x6E;"
      horiz-adv-x="1000" d="M500 166.6666666666668C475 166.6666666666668 458.3333333333333 183.3333333333334 458.3333333333333 208.3333333333334V791.6666666666667C458.3333333333333 816.6666666666666 475 833.3333333333334 500 833.3333333333334S541.6666666666666 816.6666666666666 541.6666666666666 791.6666666666667V208.3333333333334C541.6666666666666 183.3333333333334 525 166.6666666666668 500 166.6666666666668zM500 166.6666666666668C487.4999999999999 166.6666666666668 479.1666666666666 170.8333333333335 470.8333333333333 179.1666666666668L179.1666666666667 470.8333333333334C162.5 487.5000000000001 162.5 512.5 179.1666666666667 529.1666666666667S220.8333333333334 545.8333333333335 237.5000000000001 529.1666666666667L500 266.6666666666668L762.5 529.1666666666667C779.1666666666666 545.8333333333335 804.1666666666666 545.8333333333335 820.8333333333333 529.1666666666667S837.4999999999999 487.5000000000001 820.8333333333333 470.8333333333335L529.1666666666666 179.1666666666669C520.8333333333333 170.8333333333335 512.5 166.6666666666668 500 166.6666666666668z" />
    <glyph glyph-name="arrow_left_circle"
      unicode="&#x61;&#x72;&#x72;&#x6F;&#x77;&#x5F;&#x6C;&#x65;&#x66;&#x74;&#x5F;&#x63;&#x69;&#x72;&#x63;&#x6C;&#x65;"
      horiz-adv-x="1000" d="M500 41.6666666666667C245.8333333333334 41.6666666666667 41.6666666666667 245.8333333333334 41.6666666666667 500S245.8333333333334 958.3333333333334 500 958.3333333333334S958.3333333333331 754.1666666666666 958.3333333333331 500S754.1666666666666 41.6666666666667 500 41.6666666666667zM500 875C291.6666666666667 875 125 708.3333333333334 125 500C125 291.6666666666668 291.6666666666667 125 500 125C708.3333333333333 125 875 291.6666666666668 875 500C875 708.3333333333334 708.3333333333333 875 500 875zM500 291.6666666666668C487.4999999999999 291.6666666666668 479.1666666666666 295.8333333333335 470.8333333333333 304.1666666666668L304.1666666666667 470.8333333333334C287.5 487.5000000000001 287.5 512.5 304.1666666666667 529.1666666666667L470.8333333333333 695.8333333333334C487.5 712.5 512.5 712.5 529.1666666666666 695.8333333333334S545.8333333333334 654.1666666666667 529.1666666666666 637.5L391.6666666666667 500L529.1666666666666 362.5C545.8333333333333 345.8333333333334 545.8333333333333 320.8333333333334 529.1666666666666 304.1666666666668C520.8333333333333 295.8333333333335 512.5 291.6666666666668 500 291.6666666666668zM666.6666666666666 458.3333333333334H333.3333333333333C308.3333333333333 458.3333333333334 291.6666666666667 475 291.6666666666667 500S308.3333333333333 541.6666666666667 333.3333333333333 541.6666666666667H666.6666666666666C691.6666666666667 541.6666666666667 708.3333333333333 525 708.3333333333333 500S691.6666666666667 458.3333333333334 666.6666666666666 458.3333333333334z" />
    <glyph glyph-name="arrow_left"
      unicode="&#x61;&#x72;&#x72;&#x6F;&#x77;&#x5F;&#x6C;&#x65;&#x66;&#x74;"
      horiz-adv-x="1000" d="M791.6666666666666 458.3333333333334H208.3333333333333C183.3333333333334 458.3333333333334 166.6666666666667 475 166.6666666666667 500S183.3333333333334 541.6666666666667 208.3333333333333 541.6666666666667H791.6666666666666C816.6666666666666 541.6666666666667 833.3333333333333 525 833.3333333333333 500S816.6666666666666 458.3333333333334 791.6666666666666 458.3333333333334zM500 166.6666666666668C487.4999999999999 166.6666666666668 479.1666666666666 170.8333333333335 470.8333333333333 179.1666666666668L179.1666666666667 470.8333333333334C162.5 487.5000000000001 162.5 512.5 179.1666666666667 529.1666666666667L470.8333333333333 820.8333333333334C487.5 837.5 512.5 837.5 529.1666666666666 820.8333333333334S545.8333333333334 779.1666666666667 529.1666666666666 762.5L266.6666666666667 500L529.1666666666666 237.5C545.8333333333333 220.8333333333334 545.8333333333333 195.8333333333334 529.1666666666666 179.1666666666668C520.8333333333333 170.8333333333335 512.5 166.6666666666668 500 166.6666666666668z" />
    <glyph glyph-name="arrow_right_circle"
      unicode="&#x61;&#x72;&#x72;&#x6F;&#x77;&#x5F;&#x72;&#x69;&#x67;&#x68;&#x74;&#x5F;&#x63;&#x69;&#x72;&#x63;&#x6C;&#x65;"
      horiz-adv-x="1000" d="M500 41.6666666666667C245.8333333333334 41.6666666666667 41.6666666666667 245.8333333333334 41.6666666666667 500S245.8333333333334 958.3333333333334 500 958.3333333333334S958.3333333333331 754.1666666666666 958.3333333333331 500S754.1666666666666 41.6666666666667 500 41.6666666666667zM500 875C291.6666666666667 875 125 708.3333333333334 125 500C125 291.6666666666668 291.6666666666667 125 500 125C708.3333333333333 125 875 291.6666666666668 875 500C875 708.3333333333334 708.3333333333333 875 500 875zM500 291.6666666666668C487.4999999999999 291.6666666666668 479.1666666666666 295.8333333333335 470.8333333333333 304.1666666666668C454.1666666666666 320.8333333333334 454.1666666666666 345.8333333333334 470.8333333333333 362.5000000000001L608.3333333333334 500L470.8333333333333 637.5C454.1666666666666 654.1666666666667 454.1666666666666 679.1666666666667 470.8333333333333 695.8333333333334S512.5 712.5 529.1666666666666 695.8333333333334L695.8333333333334 529.1666666666667C712.5 512.5 712.5 487.5000000000001 695.8333333333334 470.8333333333334L529.1666666666667 304.1666666666668C520.8333333333333 295.8333333333335 512.5 291.6666666666668 500 291.6666666666668zM666.6666666666666 458.3333333333334H333.3333333333333C308.3333333333333 458.3333333333334 291.6666666666667 475 291.6666666666667 500S308.3333333333333 541.6666666666667 333.3333333333333 541.6666666666667H666.6666666666666C691.6666666666667 541.6666666666667 708.3333333333333 525 708.3333333333333 500S691.6666666666667 458.3333333333334 666.6666666666666 458.3333333333334z" />
    <glyph glyph-name="arrow_right"
      unicode="&#x61;&#x72;&#x72;&#x6F;&#x77;&#x5F;&#x72;&#x69;&#x67;&#x68;&#x74;"
      horiz-adv-x="1000" d="M791.6666666666666 458.3333333333334H208.3333333333333C183.3333333333334 458.3333333333334 166.6666666666667 475 166.6666666666667 500S183.3333333333334 541.6666666666667 208.3333333333333 541.6666666666667H791.6666666666666C816.6666666666666 541.6666666666667 833.3333333333333 525 833.3333333333333 500S816.6666666666666 458.3333333333334 791.6666666666666 458.3333333333334zM500 166.6666666666668C487.4999999999999 166.6666666666668 479.1666666666666 170.8333333333335 470.8333333333333 179.1666666666668C454.1666666666666 195.8333333333334 454.1666666666666 220.8333333333334 470.8333333333333 237.5L733.3333333333334 500L470.8333333333333 762.5C454.1666666666666 779.1666666666667 454.1666666666666 804.1666666666666 470.8333333333333 820.8333333333333S512.5 837.5 529.1666666666666 820.8333333333333L820.8333333333334 529.1666666666667C837.5 512.5 837.5 487.5 820.8333333333334 470.8333333333334L529.1666666666667 179.1666666666666C520.8333333333333 170.8333333333335 512.5 166.6666666666668 500 166.6666666666668z" />
    <glyph glyph-name="arrow_up_circle"
      unicode="&#x61;&#x72;&#x72;&#x6F;&#x77;&#x5F;&#x75;&#x70;&#x5F;&#x63;&#x69;&#x72;&#x63;&#x6C;&#x65;"
      horiz-adv-x="1000" d="M500 41.6666666666667C245.8333333333334 41.6666666666667 41.6666666666667 245.8333333333334 41.6666666666667 500S245.8333333333334 958.3333333333334 500 958.3333333333334S958.3333333333331 754.1666666666666 958.3333333333331 500S754.1666666666666 41.6666666666667 500 41.6666666666667zM500 875C291.6666666666667 875 125 708.3333333333334 125 500C125 291.6666666666668 291.6666666666667 125 500 125C708.3333333333333 125 875 291.6666666666668 875 500C875 708.3333333333334 708.3333333333333 875 500 875zM666.6666666666666 458.3333333333334C654.1666666666666 458.3333333333334 645.8333333333333 462.5 637.5 470.8333333333334L500 608.3333333333333L362.5 470.8333333333334C345.8333333333333 454.1666666666667 320.8333333333333 454.1666666666667 304.1666666666667 470.8333333333334S287.5 512.5 304.1666666666667 529.1666666666667L470.8333333333333 695.8333333333334C487.4999999999999 712.5 512.4999999999999 712.5 529.1666666666666 695.8333333333334L695.8333333333333 529.1666666666667C712.4999999999999 512.5 712.4999999999999 487.5000000000001 695.8333333333333 470.8333333333334C687.5 462.5 679.1666666666666 458.3333333333334 666.6666666666666 458.3333333333334zM500 291.6666666666668C475 291.6666666666668 458.3333333333333 308.3333333333333 458.3333333333333 333.3333333333334V666.6666666666667C458.3333333333333 691.6666666666667 475 708.3333333333334 500 708.3333333333334S541.6666666666666 691.6666666666667 541.6666666666666 666.6666666666667V333.3333333333334C541.6666666666666 308.3333333333333 525 291.6666666666668 500 291.6666666666668z" />
    <glyph glyph-name="arrow_up_left"
      unicode="&#x61;&#x72;&#x72;&#x6F;&#x77;&#x5F;&#x75;&#x70;&#x5F;&#x6C;&#x65;&#x66;&#x74;"
      horiz-adv-x="1000" d="M708.3333333333333 250C695.8333333333333 250 687.5 254.1666666666668 679.1666666666666 262.5000000000001L262.5 679.1666666666667C245.8333333333334 695.8333333333334 245.8333333333334 720.8333333333334 262.5 737.5S304.1666666666667 754.1666666666667 320.8333333333334 737.5L737.5000000000001 320.8333333333335C754.1666666666666 304.1666666666669 754.1666666666666 279.1666666666669 737.5000000000001 262.5000000000003C729.1666666666666 254.1666666666668 720.8333333333334 250 708.3333333333333 250zM291.6666666666667 250C266.6666666666667 250 250 266.6666666666667 250 291.6666666666668V708.3333333333334C250 733.3333333333333 266.6666666666667 750 291.6666666666667 750H708.3333333333333C733.3333333333334 750 750 733.3333333333333 750 708.3333333333334S733.3333333333334 666.6666666666667 708.3333333333333 666.6666666666667H333.3333333333333V291.6666666666668C333.3333333333333 266.6666666666667 316.6666666666667 250 291.6666666666667 250z" />
    <glyph glyph-name="arrow_up_right"
      unicode="&#x61;&#x72;&#x72;&#x6F;&#x77;&#x5F;&#x75;&#x70;&#x5F;&#x72;&#x69;&#x67;&#x68;&#x74;"
      horiz-adv-x="1000" d="M291.6666666666667 250C279.1666666666667 250 270.8333333333333 254.1666666666668 262.5 262.5000000000001C245.8333333333333 279.1666666666667 245.8333333333333 304.1666666666668 262.5 320.8333333333334L679.1666666666666 737.5C695.8333333333333 754.1666666666666 720.8333333333334 754.1666666666666 737.4999999999999 737.5S754.1666666666665 695.8333333333333 737.4999999999999 679.1666666666666L320.8333333333333 262.4999999999999C312.5 254.1666666666668 304.1666666666667 250 291.6666666666667 250zM708.3333333333333 250C683.3333333333333 250 666.6666666666666 266.6666666666667 666.6666666666666 291.6666666666668V666.6666666666667H291.6666666666667C266.6666666666667 666.6666666666667 250 683.3333333333334 250 708.3333333333334S266.6666666666667 750 291.6666666666667 750H708.3333333333333C733.3333333333334 750 750 733.3333333333333 750 708.3333333333334V291.6666666666668C750 266.6666666666667 733.3333333333334 250 708.3333333333333 250z" />
    <glyph glyph-name="arrow_up"
      unicode="&#x61;&#x72;&#x72;&#x6F;&#x77;&#x5F;&#x75;&#x70;"
      horiz-adv-x="1000" d="M500 166.6666666666668C475 166.6666666666668 458.3333333333333 183.3333333333334 458.3333333333333 208.3333333333334V791.6666666666667C458.3333333333333 816.6666666666666 475 833.3333333333334 500 833.3333333333334S541.6666666666666 816.6666666666666 541.6666666666666 791.6666666666667V208.3333333333334C541.6666666666666 183.3333333333334 525 166.6666666666668 500 166.6666666666668zM791.6666666666666 458.3333333333334C779.1666666666666 458.3333333333334 770.8333333333333 462.5 762.5 470.8333333333334L500 733.3333333333333L237.5 470.8333333333334C220.8333333333333 454.1666666666667 195.8333333333334 454.1666666666667 179.1666666666667 470.8333333333334S162.5 512.5 179.1666666666667 529.1666666666667L470.8333333333333 820.8333333333334C487.5 837.5 512.5 837.5 529.1666666666666 820.8333333333334L820.8333333333334 529.1666666666667C837.5 512.5 837.5 487.5000000000001 820.8333333333334 470.8333333333334C812.5 462.5 804.1666666666666 458.3333333333334 791.6666666666666 458.3333333333334z" />
    <glyph glyph-name="at_sign"
      unicode="&#x61;&#x74;&#x5F;&#x73;&#x69;&#x67;&#x6E;"
      horiz-adv-x="1000" d="M500 291.6666666666668C383.3333333333333 291.6666666666668 291.6666666666667 383.3333333333334 291.6666666666667 500S383.3333333333333 708.3333333333334 500 708.3333333333334S708.3333333333333 616.6666666666667 708.3333333333333 500S616.6666666666666 291.6666666666668 500 291.6666666666668zM500 625C429.1666666666667 625 375 570.8333333333333 375 500S429.1666666666667 375 500 375S625 429.1666666666668 625 500S570.8333333333333 625 500 625zM500 41.6666666666667C245.8333333333334 41.6666666666667 41.6666666666667 245.8333333333334 41.6666666666667 500C41.6666666666667 620.8333333333334 87.5 737.5 175 825C262.5 912.5 379.1666666666667 958.3333333333334 500 958.3333333333334C754.1666666666666 958.3333333333334 958.3333333333331 754.1666666666666 958.3333333333331 500V458.3333333333334C958.3333333333331 366.6666666666668 883.3333333333333 291.6666666666668 791.6666666666666 291.6666666666668S625 366.6666666666668 625 458.3333333333334V666.6666666666667C625 691.6666666666667 641.6666666666666 708.3333333333334 666.6666666666666 708.3333333333334S708.3333333333333 691.6666666666667 708.3333333333333 666.6666666666667V458.3333333333334C708.3333333333333 412.5 745.8333333333333 375 791.6666666666666 375S875 412.5 875 458.3333333333334V500C875 708.3333333333334 708.3333333333333 875 500 875C400 875 304.1666666666667 837.5 233.3333333333333 766.6666666666667C162.5 695.8333333333334 125 600 125 500C125 291.6666666666668 291.6666666666667 125 500 125C583.3333333333333 125 662.5 154.1666666666666 729.1666666666666 204.1666666666666C745.8333333333333 216.6666666666666 775 216.6666666666666 787.4999999999999 195.8333333333334C799.9999999999999 179.1666666666668 799.9999999999999 150 779.1666666666666 137.5000000000001C700 75.0000000000001 600 41.6666666666667 500 41.6666666666667z" />
    <glyph glyph-name="award"
      unicode="&#x61;&#x77;&#x61;&#x72;&#x64;"
      horiz-adv-x="1000" d="M500 333.3333333333334C316.6666666666667 333.3333333333334 166.6666666666667 483.3333333333334 166.6666666666667 666.6666666666667S316.6666666666667 1000 500 1000S833.3333333333333 850 833.3333333333333 666.6666666666667S683.3333333333333 333.3333333333334 500 333.3333333333334zM500 916.6666666666666C362.5 916.6666666666666 250 804.1666666666666 250 666.6666666666667S362.5 416.6666666666668 500 416.6666666666668S750 529.1666666666667 750 666.6666666666667S637.5 916.6666666666666 500 916.6666666666666zM708.3333333333333 0C700 0 691.6666666666667 0 687.5 4.1666666666667L500 116.6666666666668L312.5 4.1666666666667C300 -4.1666666666665 283.3333333333333 -4.1666666666665 266.6666666666667 4.1666666666667C254.1666666666667 12.5000000000001 245.8333333333334 29.1666666666669 250 45.8333333333335L300 425.0000000000001C304.1666666666667 445.8333333333334 325 462.5000000000001 345.8333333333334 462.5000000000001C370.8333333333333 458.3333333333334 387.5 437.5 383.3333333333333 416.6666666666668L345.8333333333333 120.8333333333334L479.1666666666666 199.9999999999999C491.6666666666667 208.3333333333333 508.3333333333333 208.3333333333333 520.8333333333333 199.9999999999999L654.1666666666666 120.8333333333334L616.6666666666666 416.6666666666668C612.5 437.5 629.1666666666667 462.5 654.1666666666666 462.5C679.1666666666666 466.6666666666666 700 450 700 425L750 45.8333333333335C754.1666666666666 29.1666666666669 745.8333333333333 12.5000000000001 733.3333333333334 4.1666666666667C724.9999999999999 4.1666666666667 716.6666666666666 0 708.3333333333333 0z" />
    <glyph glyph-name="bar_chart_2"
      unicode="&#x62;&#x61;&#x72;&#x5F;&#x63;&#x68;&#x61;&#x72;&#x74;&#x5F;&#x32;"
      horiz-adv-x="1000" d="M750 125C724.9999999999999 125 708.3333333333333 141.6666666666666 708.3333333333333 166.6666666666668V583.3333333333334C708.3333333333333 608.3333333333333 724.9999999999999 625 750 625S791.6666666666666 608.3333333333333 791.6666666666666 583.3333333333334V166.6666666666668C791.6666666666666 141.6666666666666 775 125 750 125zM500 125C475 125 458.3333333333333 141.6666666666666 458.3333333333333 166.6666666666668V833.3333333333334C458.3333333333333 858.3333333333334 475 875 500 875S541.6666666666666 858.3333333333334 541.6666666666666 833.3333333333334V166.6666666666668C541.6666666666666 141.6666666666666 525 125 500 125zM250 125C225 125 208.3333333333333 141.6666666666666 208.3333333333333 166.6666666666668V416.6666666666668C208.3333333333333 441.6666666666667 225 458.3333333333334 250 458.3333333333334S291.6666666666667 441.6666666666667 291.6666666666667 416.6666666666668V166.6666666666668C291.6666666666667 141.6666666666666 275 125 250 125z" />
    <glyph glyph-name="bar_chart"
      unicode="&#x62;&#x61;&#x72;&#x5F;&#x63;&#x68;&#x61;&#x72;&#x74;"
      horiz-adv-x="1000" d="M500 125C475 125 458.3333333333333 141.6666666666666 458.3333333333333 166.6666666666668V583.3333333333334C458.3333333333333 608.3333333333333 475 625 500 625S541.6666666666666 608.3333333333333 541.6666666666666 583.3333333333334V166.6666666666668C541.6666666666666 141.6666666666666 525 125 500 125zM750 125C724.9999999999999 125 708.3333333333333 141.6666666666666 708.3333333333333 166.6666666666668V833.3333333333334C708.3333333333333 858.3333333333334 724.9999999999999 875 750 875S791.6666666666666 858.3333333333334 791.6666666666666 833.3333333333334V166.6666666666668C791.6666666666666 141.6666666666666 775 125 750 125zM250 125C225 125 208.3333333333333 141.6666666666666 208.3333333333333 166.6666666666668V333.3333333333334C208.3333333333333 358.3333333333334 225 375 250 375S291.6666666666667 358.3333333333334 291.6666666666667 333.3333333333334V166.6666666666668C291.6666666666667 141.6666666666666 275 125 250 125z" />
    <glyph glyph-name="battery_charging"
      unicode="&#x62;&#x61;&#x74;&#x74;&#x65;&#x72;&#x79;&#x5F;&#x63;&#x68;&#x61;&#x72;&#x67;&#x69;&#x6E;&#x67;"
      horiz-adv-x="1000" d="M708.3333333333333 208.3333333333334H575C550 208.3333333333334 533.3333333333334 225 533.3333333333334 250S550 291.6666666666668 575 291.6666666666668H708.3333333333333C733.3333333333334 291.6666666666668 750 308.3333333333333 750 333.3333333333334V666.6666666666667C750 691.6666666666667 733.3333333333334 708.3333333333334 708.3333333333333 708.3333333333334H625C600 708.3333333333334 583.3333333333333 725 583.3333333333333 750S600 791.6666666666667 625 791.6666666666667H708.3333333333333C779.1666666666666 791.6666666666667 833.3333333333333 737.5 833.3333333333333 666.6666666666667V333.3333333333334C833.3333333333333 262.5000000000001 779.1666666666666 208.3333333333334 708.3333333333333 208.3333333333334zM208.3333333333333 208.3333333333334H125C54.1666666666667 208.3333333333334 0 262.5000000000001 0 333.3333333333334V666.6666666666667C0 737.5 54.1666666666667 791.6666666666667 125 791.6666666666667H258.3333333333333C283.3333333333333 791.6666666666667 300 775 300 750S283.3333333333333 708.3333333333334 258.3333333333333 708.3333333333334H125C100 708.3333333333334 83.3333333333333 691.6666666666667 83.3333333333333 666.6666666666667V333.3333333333334C83.3333333333333 308.3333333333333 100 291.6666666666668 125 291.6666666666668H208.3333333333333C233.3333333333333 291.6666666666668 250 275.0000000000001 250 250S233.3333333333333 208.3333333333334 208.3333333333333 208.3333333333334zM958.3333333333331 416.6666666666668C933.3333333333331 416.6666666666668 916.6666666666666 433.3333333333334 916.6666666666666 458.3333333333334V541.6666666666667C916.6666666666666 566.6666666666667 933.3333333333331 583.3333333333334 958.3333333333331 583.3333333333334S1000 566.6666666666667 1000 541.6666666666667V458.3333333333334C1000 433.3333333333334 983.3333333333334 416.6666666666668 958.3333333333331 416.6666666666668zM375 208.3333333333334C366.6666666666667 208.3333333333334 358.3333333333333 212.5000000000001 350 216.6666666666666C329.1666666666667 229.1666666666668 325 254.1666666666667 337.5 275L462.4999999999999 458.3333333333333H291.6666666666667C275 458.3333333333333 262.5 466.6666666666666 254.1666666666667 479.1666666666666C245.8333333333333 491.6666666666666 245.8333333333333 508.3333333333333 254.1666666666667 520.8333333333333L420.8333333333333 770.8333333333333C433.3333333333333 791.6666666666666 458.3333333333333 795.8333333333333 479.1666666666666 783.3333333333333C500 770.8333333333333 504.1666666666666 745.8333333333333 491.6666666666667 725L366.6666666666667 541.6666666666666H541.6666666666666C558.3333333333334 541.6666666666666 570.8333333333333 533.3333333333333 579.1666666666666 520.8333333333333S587.5 491.6666666666666 579.1666666666666 479.1666666666666L412.5 229.1666666666668C400 216.6666666666666 387.5 208.3333333333334 375 208.3333333333334z" />
    <glyph glyph-name="battery"
      unicode="&#x62;&#x61;&#x74;&#x74;&#x65;&#x72;&#x79;"
      horiz-adv-x="1000" d="M708.3333333333333 208.3333333333334H125C54.1666666666667 208.3333333333334 0 262.5000000000001 0 333.3333333333334V666.6666666666667C0 737.5 54.1666666666667 791.6666666666667 125 791.6666666666667H708.3333333333333C779.1666666666666 791.6666666666667 833.3333333333333 737.5 833.3333333333333 666.6666666666667V333.3333333333334C833.3333333333333 262.5000000000001 779.1666666666666 208.3333333333334 708.3333333333333 208.3333333333334zM125 708.3333333333334C100 708.3333333333334 83.3333333333333 691.6666666666667 83.3333333333333 666.6666666666667V333.3333333333334C83.3333333333333 308.3333333333333 100 291.6666666666668 125 291.6666666666668H708.3333333333333C733.3333333333334 291.6666666666668 750 308.3333333333333 750 333.3333333333334V666.6666666666667C750 691.6666666666667 733.3333333333334 708.3333333333334 708.3333333333333 708.3333333333334H125zM958.3333333333331 416.6666666666668C933.3333333333331 416.6666666666668 916.6666666666666 433.3333333333334 916.6666666666666 458.3333333333334V541.6666666666667C916.6666666666666 566.6666666666667 933.3333333333331 583.3333333333334 958.3333333333331 583.3333333333334S1000 566.6666666666667 1000 541.6666666666667V458.3333333333334C1000 433.3333333333334 983.3333333333334 416.6666666666668 958.3333333333331 416.6666666666668z" />
    <glyph glyph-name="bell_off"
      unicode="&#x62;&#x65;&#x6C;&#x6C;&#x5F;&#x6F;&#x66;&#x66;"
      horiz-adv-x="1000" d="M500 41.6666666666667C479.1666666666666 41.6666666666667 458.3333333333333 45.8333333333335 437.5 58.3333333333334C416.6666666666667 70.8333333333334 404.1666666666667 83.3333333333334 391.6666666666667 104.1666666666667C379.1666666666667 125 387.5 150.0000000000001 408.3333333333333 162.5C429.1666666666667 175 454.1666666666666 166.6666666666668 466.6666666666667 145.8333333333334C470.8333333333333 141.6666666666666 475 133.3333333333334 483.3333333333334 129.1666666666668C504.1666666666667 116.6666666666668 529.1666666666666 125 541.6666666666667 145.8333333333334C554.1666666666667 166.6666666666668 579.1666666666667 170.8333333333335 600 162.5C620.8333333333334 150 625 125 616.6666666666667 104.1666666666667C583.3333333333333 62.5 541.6666666666666 41.6666666666667 500 41.6666666666667zM775 416.6666666666668C758.3333333333334 416.6666666666668 741.6666666666666 429.1666666666668 733.3333333333334 445.8333333333334C716.6666666666666 520.8333333333334 708.3333333333333 591.6666666666667 708.3333333333333 666.6666666666667C708.3333333333333 687.5 729.1666666666666 708.3333333333334 750 708.3333333333334C750 708.3333333333334 750 708.3333333333334 750 708.3333333333334C775 708.3333333333334 791.6666666666666 687.5 791.6666666666666 666.6666666666667C791.6666666666666 600 799.9999999999999 533.3333333333334 816.6666666666666 470.8333333333334C820.8333333333334 450.0000000000001 808.3333333333334 425.0000000000001 787.5 420.8333333333334C783.3333333333334 416.6666666666668 779.1666666666666 416.6666666666668 775 416.6666666666668zM708.3333333333333 250H125C108.3333333333333 250 91.6666666666667 262.5000000000001 83.3333333333333 279.1666666666667C79.1666666666667 295.8333333333333 83.3333333333333 316.6666666666667 100 325.0000000000001C100 325.0000000000001 208.3333333333333 404.1666666666668 208.3333333333333 666.6666666666667C208.3333333333333 695.8333333333334 212.5 725 220.8333333333333 750C229.1666666666667 775 250 787.5 275 779.1666666666667C295.8333333333333 770.8333333333334 308.3333333333333 750 300 725C295.8333333333333 708.3333333333334 291.6666666666667 687.5 291.6666666666667 666.6666666666667C291.6666666666667 500 250 395.8333333333334 212.5 333.3333333333334H708.3333333333333C733.3333333333334 333.3333333333334 750 316.6666666666668 750 291.6666666666668S733.3333333333334 250 708.3333333333333 250zM750 625C750 625 750 625 750 625C724.9999999999999 625 708.3333333333333 641.6666666666667 708.3333333333333 666.6666666666667C708.3333333333333 720.8333333333333 687.5 775 645.8333333333333 812.5C608.3333333333333 854.1666666666667 554.1666666666666 875 500 875C500 875 500 875 500 875C458.3333333333333 875 416.6666666666667 862.5 383.3333333333333 841.6666666666667C366.6666666666667 829.1666666666667 337.5 833.3333333333334 325 850C312.5 870.8333333333334 320.8333333333333 895.8333333333334 337.5 908.3333333333334C387.5 941.6666666666666 441.6666666666667 958.3333333333334 500 958.3333333333334C500 958.3333333333334 500 958.3333333333334 500 958.3333333333334C662.5 958.3333333333334 791.6666666666666 825 791.6666666666666 666.6666666666667C791.6666666666666 641.6666666666667 775 625 750 625zM958.3333333333331 0C945.8333333333331 0 937.5 4.1666666666667 929.1666666666666 12.5000000000001L12.5 929.1666666666669C-4.1666666666666 945.8333333333334 -4.1666666666666 970.8333333333334 12.5 987.5S54.1666666666667 1004.1666666666669 70.8333333333334 987.5L987.4999999999998 70.8333333333334C1004.1666666666666 54.1666666666667 1004.1666666666666 29.1666666666667 987.4999999999998 12.5000000000001C979.1666666666666 4.1666666666667 970.8333333333331 0 958.3333333333331 0z" />
    <glyph glyph-name="bell"
      unicode="&#x62;&#x65;&#x6C;&#x6C;"
      horiz-adv-x="1000" d="M875 250H125C108.3333333333333 250 91.6666666666667 262.5000000000001 83.3333333333333 279.1666666666667C79.1666666666667 295.8333333333333 83.3333333333333 316.6666666666667 100 325.0000000000001C100 325.0000000000001 208.3333333333333 404.1666666666668 208.3333333333333 666.6666666666667C208.3333333333333 829.1666666666667 337.5 958.3333333333334 500 958.3333333333334C662.5 958.3333333333334 791.6666666666666 829.1666666666667 791.6666666666666 666.6666666666667C791.6666666666666 404.1666666666667 895.8333333333333 325.0000000000001 900 325.0000000000001C916.6666666666666 312.5 920.8333333333334 295.8333333333335 916.6666666666666 279.1666666666667S891.6666666666665 250 875 250zM212.5 333.3333333333334H783.3333333333331C750 395.8333333333334 708.3333333333333 500 708.3333333333333 666.6666666666667C708.3333333333333 783.3333333333334 616.6666666666666 875 500 875S291.6666666666667 783.3333333333334 291.6666666666667 666.6666666666667C291.6666666666667 500 250 395.8333333333334 212.5 333.3333333333334zM500 41.6666666666667C479.1666666666666 41.6666666666667 458.3333333333333 45.8333333333335 437.5 58.3333333333334C416.6666666666667 70.8333333333334 404.1666666666667 83.3333333333334 391.6666666666667 104.1666666666667C379.1666666666667 125 387.5 150.0000000000001 408.3333333333333 162.5C429.1666666666667 175 454.1666666666666 166.6666666666668 466.6666666666667 145.8333333333334C470.8333333333333 141.6666666666666 475 133.3333333333334 483.3333333333334 129.1666666666668C504.1666666666667 116.6666666666668 529.1666666666666 125 541.6666666666667 145.8333333333334C554.1666666666667 166.6666666666668 579.1666666666667 170.8333333333335 600 162.5C620.8333333333334 150 625 125 616.6666666666667 104.1666666666667C583.3333333333333 62.5 541.6666666666666 41.6666666666667 500 41.6666666666667z" />
    <glyph glyph-name="bluetooth"
      unicode="&#x62;&#x6C;&#x75;&#x65;&#x74;&#x6F;&#x6F;&#x74;&#x68;"
      horiz-adv-x="1000" d="M500 0C495.8333333333333 0 487.4999999999999 0 483.3333333333333 4.1666666666667C466.6666666666666 8.3333333333334 458.3333333333333 25.0000000000001 458.3333333333333 41.6666666666667V400L300 241.6666666666668C283.3333333333333 225.0000000000001 258.3333333333333 225.0000000000001 241.6666666666667 241.6666666666668S225 283.3333333333334 241.6666666666667 300L441.6666666666667 500L241.6666666666667 700C225 716.6666666666667 225 741.6666666666667 241.6666666666667 758.3333333333333S283.3333333333333 775 300 758.3333333333333L458.3333333333333 600V958.3333333333334C458.3333333333333 975 466.6666666666666 991.6666666666666 483.3333333333333 995.8333333333334C500 1004.1666666666666 516.6666666666666 1000 529.1666666666666 987.5L758.3333333333333 758.3333333333334C774.9999999999999 741.6666666666667 774.9999999999999 716.6666666666667 758.3333333333333 700L558.3333333333334 500L758.3333333333333 300C774.9999999999999 283.3333333333334 774.9999999999999 258.3333333333334 758.3333333333333 241.6666666666668L529.1666666666666 12.5000000000001C520.8333333333333 4.1666666666667 512.5 0 500 0zM541.6666666666666 400V141.6666666666666L670.8333333333334 270.8333333333334L541.6666666666666 400zM541.6666666666666 858.3333333333334V600L670.8333333333334 729.1666666666667L541.6666666666666 858.3333333333334z" />
    <glyph glyph-name="bold"
      unicode="&#x62;&#x6F;&#x6C;&#x64;"
      horiz-adv-x="1000" d="M583.3333333333333 458.3333333333334H250C225 458.3333333333334 208.3333333333333 475 208.3333333333333 500V833.3333333333334C208.3333333333333 858.3333333333334 225 875 250 875H583.3333333333333C700 875 791.6666666666666 783.3333333333334 791.6666666666666 666.6666666666667S700 458.3333333333334 583.3333333333333 458.3333333333334zM291.6666666666667 541.6666666666667H583.3333333333333C654.1666666666666 541.6666666666667 708.3333333333333 595.8333333333334 708.3333333333333 666.6666666666667S654.1666666666666 791.6666666666667 583.3333333333333 791.6666666666667H291.6666666666667V541.6666666666667zM625 125H250C225 125 208.3333333333333 141.6666666666666 208.3333333333333 166.6666666666668V500C208.3333333333333 525 225 541.6666666666667 250 541.6666666666667H625C741.6666666666666 541.6666666666667 833.3333333333333 450.0000000000001 833.3333333333333 333.3333333333334S741.6666666666666 125 625 125zM291.6666666666667 208.3333333333334H625C695.8333333333333 208.3333333333334 750 262.5000000000001 750 333.3333333333334S695.8333333333333 458.3333333333334 625 458.3333333333334H291.6666666666667V208.3333333333334z" />
    <glyph glyph-name="book_open"
      unicode="&#x62;&#x6F;&#x6F;&#x6B;&#x5F;&#x6F;&#x70;&#x65;&#x6E;"
      horiz-adv-x="1000" d="M500 83.3333333333334C475 83.3333333333334 458.3333333333333 100 458.3333333333333 125C458.3333333333333 170.8333333333335 420.8333333333333 208.3333333333334 375 208.3333333333334H83.3333333333333C58.3333333333333 208.3333333333334 41.6666666666667 225 41.6666666666667 250V875C41.6666666666667 900 58.3333333333333 916.6666666666666 83.3333333333333 916.6666666666666H333.3333333333333C450 916.6666666666666 541.6666666666666 825 541.6666666666666 708.3333333333334V125C541.6666666666666 100 525 83.3333333333334 500 83.3333333333334zM125 291.6666666666668H375C404.1666666666667 291.6666666666668 433.3333333333333 283.3333333333334 458.3333333333333 270.8333333333334V708.3333333333334C458.3333333333333 779.1666666666667 404.1666666666667 833.3333333333334 333.3333333333333 833.3333333333334H125V291.6666666666668zM500 83.3333333333334C475 83.3333333333334 458.3333333333333 100 458.3333333333333 125V708.3333333333334C458.3333333333333 825 549.9999999999999 916.6666666666666 666.6666666666666 916.6666666666666H916.6666666666666C941.6666666666666 916.6666666666666 958.3333333333331 900 958.3333333333331 875V250C958.3333333333331 225 941.6666666666666 208.3333333333334 916.6666666666666 208.3333333333334H625C579.1666666666666 208.3333333333334 541.6666666666666 170.8333333333335 541.6666666666666 125C541.6666666666666 100 525 83.3333333333334 500 83.3333333333334zM666.6666666666666 833.3333333333334C595.8333333333334 833.3333333333334 541.6666666666666 779.1666666666667 541.6666666666666 708.3333333333334V270.8333333333334C566.6666666666666 283.3333333333334 595.8333333333334 291.6666666666668 625 291.6666666666668H875V833.3333333333334H666.6666666666666z" />
    <glyph glyph-name="book"
      unicode="&#x62;&#x6F;&#x6F;&#x6B;"
      horiz-adv-x="1000" d="M166.6666666666667 145.8333333333334C141.6666666666667 145.8333333333334 125 162.5 125 187.5C125 266.6666666666667 191.6666666666666 333.3333333333334 270.8333333333333 333.3333333333334H833.3333333333333C858.3333333333334 333.3333333333334 875 316.6666666666668 875 291.6666666666668S858.3333333333334 250 833.3333333333333 250H270.8333333333333C237.5 250 208.3333333333333 220.8333333333334 208.3333333333333 187.5C208.3333333333333 162.5 191.6666666666666 145.8333333333334 166.6666666666667 145.8333333333334zM833.3333333333333 41.6666666666667H270.8333333333333C191.6666666666666 41.6666666666667 125 108.3333333333335 125 187.5V812.5C125 891.6666666666666 191.6666666666666 958.3333333333334 270.8333333333333 958.3333333333334H833.3333333333333C858.3333333333334 958.3333333333334 875 941.6666666666666 875 916.6666666666666V83.3333333333334C875 58.3333333333334 858.3333333333334 41.6666666666667 833.3333333333333 41.6666666666667zM270.8333333333333 875C237.5 875 208.3333333333333 845.8333333333334 208.3333333333333 812.5V187.5C208.3333333333333 154.1666666666666 237.5 125 270.8333333333333 125H791.6666666666666V875H270.8333333333333z" />
    <glyph glyph-name="bookmark"
      unicode="&#x62;&#x6F;&#x6F;&#x6B;&#x6D;&#x61;&#x72;&#x6B;"
      horiz-adv-x="1000" d="M791.6666666666666 83.3333333333334C783.3333333333334 83.3333333333334 775 87.5000000000001 766.6666666666665 91.6666666666667L500 283.3333333333334L233.3333333333333 91.6666666666669C220.8333333333333 83.3333333333335 204.1666666666666 83.3333333333335 191.6666666666666 87.5000000000001S166.6666666666667 108.3333333333335 166.6666666666667 125V791.6666666666667C166.6666666666667 862.5 220.8333333333333 916.6666666666666 291.6666666666667 916.6666666666666H708.3333333333333C779.1666666666666 916.6666666666666 833.3333333333333 862.5 833.3333333333333 791.6666666666667V125C833.3333333333333 108.3333333333335 825 95.8333333333334 812.5 87.5000000000001C804.1666666666666 83.3333333333334 799.9999999999999 83.3333333333334 791.6666666666666 83.3333333333334zM500 375C508.3333333333333 375 516.6666666666666 370.8333333333334 525 366.6666666666668L750 204.1666666666669V791.6666666666667C750 816.6666666666666 733.3333333333334 833.3333333333334 708.3333333333333 833.3333333333334H291.6666666666667C266.6666666666667 833.3333333333334 250 816.6666666666666 250 791.6666666666667V204.1666666666666L475 366.6666666666667C483.3333333333333 370.8333333333334 491.6666666666667 375 500 375z" />
    <glyph glyph-name="box"
      unicode="&#x62;&#x6F;&#x78;"
      horiz-adv-x="1000" d="M500 41.6666666666667C479.1666666666666 41.6666666666667 458.3333333333333 45.8333333333335 437.5 58.3333333333334L145.8333333333333 225C108.3333333333333 245.8333333333334 83.3333333333333 287.5 83.3333333333333 333.3333333333334V666.6666666666667C83.3333333333333 712.5 108.3333333333333 754.1666666666666 145.8333333333333 775L437.5 941.6666666666666C475 962.5 525 962.5 562.5 941.6666666666666L854.1666666666666 775C891.6666666666665 754.1666666666666 916.6666666666666 712.5 916.6666666666666 666.6666666666667V333.3333333333334V333.3333333333334C916.6666666666666 287.5 891.6666666666665 245.8333333333334 854.1666666666666 225L562.5 58.3333333333334C541.6666666666666 45.8333333333335 520.8333333333333 41.6666666666667 500 41.6666666666667zM500 875C491.6666666666667 875 487.4999999999999 875 479.1666666666666 870.8333333333334L187.5 704.1666666666667C175 695.8333333333334 166.6666666666667 683.3333333333334 166.6666666666667 666.6666666666667V333.3333333333334C166.6666666666667 316.6666666666668 175 304.1666666666668 187.5 295.8333333333335L479.1666666666666 129.1666666666668C491.6666666666667 120.8333333333335 508.3333333333333 120.8333333333335 520.8333333333333 129.1666666666668L812.5 295.8333333333335C825 304.1666666666668 833.3333333333333 316.6666666666668 833.3333333333333 333.3333333333335V666.6666666666667C833.3333333333333 683.3333333333334 825 695.8333333333334 812.5 704.1666666666667L520.8333333333333 870.8333333333334C512.5 875 508.3333333333333 875 500 875zM875 333.3333333333334L875 333.3333333333334L875 333.3333333333334zM500 458.3333333333334C491.6666666666667 458.3333333333334 487.4999999999999 458.3333333333334 479.1666666666666 462.5L116.6666666666667 670.8333333333333C95.8333333333333 687.5 87.5 712.5 100 729.1666666666667C112.5 750 137.5 758.3333333333334 158.3333333333333 745.8333333333334L500 545.8333333333335L841.6666666666666 745.8333333333334C862.4999999999999 758.3333333333334 887.5 750 899.9999999999999 729.1666666666667C912.4999999999998 708.3333333333334 904.1666666666666 683.3333333333334 883.3333333333333 670.8333333333335L520.8333333333333 462.5000000000001C512.5 458.3333333333334 508.3333333333333 458.3333333333334 500 458.3333333333334zM500 37.5C475 37.5 458.3333333333333 54.1666666666666 458.3333333333333 79.1666666666666V500C458.3333333333333 525 475 541.6666666666667 500 541.6666666666667S541.6666666666666 525 541.6666666666666 500V79.1666666666666C541.6666666666666 58.3333333333334 525 37.5 500 37.5z" />
    <glyph glyph-name="briefcase"
      unicode="&#x62;&#x72;&#x69;&#x65;&#x66;&#x63;&#x61;&#x73;&#x65;"
      horiz-adv-x="1000" d="M833.3333333333333 83.3333333333334H166.6666666666667C95.8333333333333 83.3333333333334 41.6666666666667 137.5000000000001 41.6666666666667 208.3333333333334V625C41.6666666666667 695.8333333333334 95.8333333333333 750 166.6666666666667 750H833.3333333333333C904.1666666666666 750 958.3333333333331 695.8333333333334 958.3333333333331 625V208.3333333333334C958.3333333333331 137.5000000000001 904.1666666666666 83.3333333333334 833.3333333333333 83.3333333333334zM166.6666666666667 666.6666666666667C141.6666666666667 666.6666666666667 125 650 125 625V208.3333333333334C125 183.3333333333334 141.6666666666667 166.6666666666668 166.6666666666667 166.6666666666668H833.3333333333333C858.3333333333334 166.6666666666668 875 183.3333333333334 875 208.3333333333334V625C875 650 858.3333333333334 666.6666666666667 833.3333333333333 666.6666666666667H166.6666666666667zM666.6666666666666 83.3333333333334C641.6666666666666 83.3333333333334 625 100 625 125V791.6666666666667C625 816.6666666666666 608.3333333333333 833.3333333333334 583.3333333333333 833.3333333333334H416.6666666666667C391.6666666666667 833.3333333333334 375 816.6666666666666 375 791.6666666666667V125C375 100 358.3333333333333 83.3333333333334 333.3333333333333 83.3333333333334S291.6666666666667 100 291.6666666666667 125V791.6666666666667C291.6666666666667 862.5 345.8333333333334 916.6666666666666 416.6666666666667 916.6666666666666H583.3333333333333C654.1666666666666 916.6666666666666 708.3333333333333 862.5 708.3333333333333 791.6666666666667V125C708.3333333333333 100 691.6666666666667 83.3333333333334 666.6666666666666 83.3333333333334z" />
    <glyph glyph-name="calendar"
      unicode="&#x63;&#x61;&#x6C;&#x65;&#x6E;&#x64;&#x61;&#x72;"
      horiz-adv-x="1000" d="M791.6666666666666 41.6666666666667H208.3333333333333C137.5 41.6666666666667 83.3333333333333 95.8333333333334 83.3333333333333 166.6666666666668V750C83.3333333333333 820.8333333333334 137.5 875 208.3333333333333 875H791.6666666666666C862.4999999999999 875 916.6666666666666 820.8333333333334 916.6666666666666 750V166.6666666666668C916.6666666666666 95.8333333333334 862.4999999999999 41.6666666666667 791.6666666666666 41.6666666666667zM208.3333333333333 791.6666666666667C183.3333333333334 791.6666666666667 166.6666666666667 775 166.6666666666667 750V166.6666666666668C166.6666666666667 141.6666666666666 183.3333333333334 125 208.3333333333333 125H791.6666666666666C816.6666666666666 125 833.3333333333333 141.6666666666666 833.3333333333333 166.6666666666668V750C833.3333333333333 775 816.6666666666666 791.6666666666667 791.6666666666666 791.6666666666667H208.3333333333333zM666.6666666666666 708.3333333333334C641.6666666666666 708.3333333333334 625 725 625 750V916.6666666666666C625 941.6666666666666 641.6666666666666 958.3333333333334 666.6666666666666 958.3333333333334S708.3333333333333 941.6666666666666 708.3333333333333 916.6666666666666V750C708.3333333333333 725 691.6666666666667 708.3333333333334 666.6666666666666 708.3333333333334zM333.3333333333333 708.3333333333334C308.3333333333333 708.3333333333334 291.6666666666667 725 291.6666666666667 750V916.6666666666666C291.6666666666667 941.6666666666666 308.3333333333333 958.3333333333334 333.3333333333333 958.3333333333334S375 941.6666666666666 375 916.6666666666666V750C375 725 358.3333333333333 708.3333333333334 333.3333333333333 708.3333333333334zM875 541.6666666666667H125C100 541.6666666666667 83.3333333333333 558.3333333333334 83.3333333333333 583.3333333333334S100 625 125 625H875C900 625 916.6666666666666 608.3333333333333 916.6666666666666 583.3333333333334S900 541.6666666666667 875 541.6666666666667z" />
    <glyph glyph-name="camera_off"
      unicode="&#x63;&#x61;&#x6D;&#x65;&#x72;&#x61;&#x5F;&#x6F;&#x66;&#x66;"
      horiz-adv-x="1000" d="M958.3333333333331 0C945.8333333333331 0 937.5 4.1666666666667 929.1666666666666 12.5000000000001L12.5 929.1666666666669C-4.1666666666666 945.8333333333334 -4.1666666666666 970.8333333333334 12.5 987.5S54.1666666666667 1004.1666666666669 70.8333333333334 987.5L987.4999999999998 70.8333333333334C1004.1666666666666 54.1666666666667 1004.1666666666666 29.1666666666667 987.4999999999998 12.5000000000001C979.1666666666666 4.1666666666667 970.8333333333331 0 958.3333333333331 0zM875 83.3333333333334H125C54.1666666666667 83.3333333333334 0 137.5000000000001 0 208.3333333333334V666.6666666666667C0 737.5 54.1666666666667 791.6666666666667 125 791.6666666666667H250C275 791.6666666666667 291.6666666666667 775 291.6666666666667 750S275 708.3333333333334 250 708.3333333333334H125C100 708.3333333333334 83.3333333333333 691.6666666666667 83.3333333333333 666.6666666666667V208.3333333333334C83.3333333333333 183.3333333333334 100 166.6666666666668 125 166.6666666666668H875C900 166.6666666666668 916.6666666666666 150.0000000000001 916.6666666666666 125S900 83.3333333333334 875 83.3333333333334zM958.3333333333331 237.5C933.3333333333331 237.5 916.6666666666666 254.1666666666667 916.6666666666666 279.1666666666667V666.6666666666667C916.6666666666666 691.6666666666667 900 708.3333333333334 875 708.3333333333334H708.3333333333333C695.8333333333333 708.3333333333334 683.3333333333333 716.6666666666667 674.9999999999999 725L604.1666666666666 833.3333333333334H375C350 833.3333333333334 333.3333333333333 850 333.3333333333333 875S350 916.6666666666666 375 916.6666666666666H625C637.5 916.6666666666666 650 908.3333333333334 658.3333333333334 900L729.1666666666666 791.6666666666667H875C945.8333333333331 791.6666666666667 1000 737.5 1000 666.6666666666667V279.1666666666667C1000 254.1666666666668 983.3333333333334 237.5 958.3333333333331 237.5zM500 250C458.3333333333333 250 416.6666666666667 262.5000000000001 383.3333333333333 287.5C337.5 320.8333333333334 308.3333333333333 366.6666666666667 295.8333333333333 420.8333333333333C287.5 475 295.8333333333333 529.1666666666665 329.1666666666667 574.9999999999999C345.8333333333333 595.8333333333333 362.5 616.6666666666665 383.3333333333333 629.1666666666665C404.1666666666667 641.6666666666666 429.1666666666666 637.4999999999999 441.6666666666667 616.6666666666665C454.1666666666666 595.8333333333333 450 570.8333333333333 429.1666666666666 558.3333333333333C416.6666666666667 550 404.1666666666667 541.6666666666667 395.8333333333333 529.1666666666667C379.1666666666667 500 370.8333333333333 466.6666666666666 375 433.3333333333334C379.1666666666667 400 400 370.8333333333334 429.1666666666667 354.1666666666668C458.3333333333333 333.3333333333334 491.6666666666667 329.1666666666667 520.8333333333333 333.3333333333334C554.1666666666666 337.5 583.3333333333333 358.3333333333334 600 387.5000000000001C612.5 408.3333333333334 637.5 412.5 658.3333333333334 400.0000000000001C679.1666666666666 387.5000000000001 683.3333333333334 362.5000000000001 670.8333333333334 341.6666666666668C637.5 295.8333333333335 591.6666666666666 266.6666666666668 537.5000000000001 254.1666666666668C525 250 512.5 250 500 250z" />
    <glyph glyph-name="camera"
      unicode="&#x63;&#x61;&#x6D;&#x65;&#x72;&#x61;"
      horiz-adv-x="1000" d="M875 83.3333333333334H125C54.1666666666667 83.3333333333334 0 137.5000000000001 0 208.3333333333334V666.6666666666667C0 737.5 54.1666666666667 791.6666666666667 125 791.6666666666667H270.8333333333333L341.6666666666667 900C350 908.3333333333334 362.5 916.6666666666666 375 916.6666666666666H625C637.5 916.6666666666666 650 908.3333333333334 658.3333333333334 900L729.1666666666666 791.6666666666667H875C945.8333333333331 791.6666666666667 1000 737.5 1000 666.6666666666667V208.3333333333334C1000 137.5000000000001 945.8333333333331 83.3333333333334 875 83.3333333333334zM125 708.3333333333334C100 708.3333333333334 83.3333333333333 691.6666666666667 83.3333333333333 666.6666666666667V208.3333333333334C83.3333333333333 183.3333333333334 100 166.6666666666668 125 166.6666666666668H875C900 166.6666666666668 916.6666666666666 183.3333333333334 916.6666666666666 208.3333333333334V666.6666666666667C916.6666666666666 691.6666666666667 900 708.3333333333334 875 708.3333333333334H708.3333333333333C695.8333333333333 708.3333333333334 683.3333333333333 716.6666666666667 674.9999999999999 725L604.1666666666666 833.3333333333334H395.8333333333333L325 725C316.6666666666667 716.6666666666667 304.1666666666667 708.3333333333334 291.6666666666667 708.3333333333334H125zM500 250C383.3333333333333 250 291.6666666666667 341.6666666666667 291.6666666666667 458.3333333333334S383.3333333333333 666.6666666666667 500 666.6666666666667S708.3333333333333 575 708.3333333333333 458.3333333333334S616.6666666666666 250 500 250zM500 583.3333333333334C429.1666666666667 583.3333333333334 375 529.1666666666667 375 458.3333333333334S429.1666666666667 333.3333333333334 500 333.3333333333334S625 387.5000000000001 625 458.3333333333334S570.8333333333333 583.3333333333334 500 583.3333333333334z" />
    <glyph glyph-name="cast"
      unicode="&#x63;&#x61;&#x73;&#x74;"
      horiz-adv-x="1000" d="M245.8333333333334 125C225 125 208.3333333333333 137.5000000000001 204.1666666666667 158.3333333333334C191.6666666666667 225.0000000000001 141.6666666666667 275.0000000000001 75 287.5000000000001C54.1666666666667 291.6666666666668 37.5 316.6666666666668 41.6666666666667 337.5C45.8333333333333 358.3333333333334 66.6666666666667 375 91.6666666666667 370.8333333333334C191.6666666666666 350 266.6666666666667 275.0000000000001 287.5 175C291.6666666666667 154.1666666666666 275 129.1666666666668 254.1666666666667 125C250 125 250 125 245.8333333333334 125zM412.5 125C391.6666666666667 125 375 141.6666666666666 370.8333333333333 162.5C354.1666666666667 316.6666666666667 233.3333333333334 441.6666666666667 75 458.3333333333333C54.1666666666667 458.3333333333334 37.5 479.1666666666667 41.6666666666667 504.1666666666667C45.8333333333333 525 66.6666666666667 541.6666666666667 87.5 541.6666666666667C283.3333333333334 520.8333333333334 433.3333333333333 366.6666666666668 454.1666666666666 175C458.3333333333333 154.1666666666666 441.6666666666667 133.3333333333334 416.6666666666667 129.1666666666666C416.6666666666667 125 416.6666666666667 125 412.5 125zM833.3333333333333 125H583.3333333333333C558.3333333333334 125 541.6666666666666 141.6666666666666 541.6666666666666 166.6666666666668S558.3333333333334 208.3333333333334 583.3333333333333 208.3333333333334H833.3333333333333C858.3333333333334 208.3333333333334 875 225 875 250V750C875 775 858.3333333333334 791.6666666666667 833.3333333333333 791.6666666666667H166.6666666666667C141.6666666666667 791.6666666666667 125 775 125 750V666.6666666666667C125 641.6666666666667 108.3333333333333 625 83.3333333333333 625S41.6666666666667 641.6666666666667 41.6666666666667 666.6666666666667V750C41.6666666666667 820.8333333333334 95.8333333333333 875 166.6666666666667 875H833.3333333333333C904.1666666666666 875 958.3333333333331 820.8333333333334 958.3333333333331 750V250C958.3333333333331 179.1666666666668 904.1666666666666 125 833.3333333333333 125zM83.3333333333333 125C58.3333333333333 125 41.6666666666667 141.6666666666666 41.6666666666667 166.6666666666668S58.3333333333333 208.3333333333334 83.3333333333333 208.3333333333334H83.3333333333333C108.3333333333333 208.3333333333334 125 191.6666666666668 125 166.6666666666668S108.3333333333333 125 83.3333333333333 125z" />
    <glyph glyph-name="check_circle"
      unicode="&#x63;&#x68;&#x65;&#x63;&#x6B;&#x5F;&#x63;&#x69;&#x72;&#x63;&#x6C;&#x65;"
      horiz-adv-x="1000" d="M500 41.6666666666667C500 41.6666666666667 500 41.6666666666667 500 41.6666666666667C245.8333333333334 41.6666666666667 41.6666666666667 245.8333333333334 41.6666666666667 500C41.6666666666667 754.1666666666666 245.8333333333334 958.3333333333334 500 958.3333333333334C500 958.3333333333334 500 958.3333333333334 500 958.3333333333334C566.6666666666666 958.3333333333334 629.1666666666666 945.8333333333334 687.5 916.6666666666666C708.3333333333333 908.3333333333334 716.6666666666666 883.3333333333334 708.3333333333333 862.5C700 841.6666666666667 674.9999999999999 833.3333333333334 654.1666666666666 841.6666666666667C604.1666666666666 862.5 554.1666666666666 875 500 875C500 875 500 875 500 875C291.6666666666667 875 125 708.3333333333334 125 500C125 291.6666666666668 291.6666666666667 125 500 125C500 125 500 125 500 125C708.3333333333333 125 875 291.6666666666668 875 500V537.5C875 562.5 891.6666666666665 579.1666666666667 916.6666666666666 579.1666666666667S958.3333333333331 562.5 958.3333333333331 537.5V500C958.3333333333331 245.8333333333334 754.1666666666666 41.6666666666667 500 41.6666666666667zM500 375C487.4999999999999 375 479.1666666666666 379.1666666666668 470.8333333333333 387.5000000000001L345.8333333333334 512.5C329.1666666666667 529.1666666666667 329.1666666666667 554.1666666666667 345.8333333333334 570.8333333333335S387.5 587.5 404.1666666666667 570.8333333333335L500 475.0000000000001L887.5 862.5000000000001C904.1666666666666 879.1666666666667 929.1666666666666 879.1666666666667 945.8333333333331 862.5000000000001C962.4999999999998 845.8333333333335 962.4999999999998 820.8333333333335 945.8333333333331 804.1666666666667L529.1666666666666 387.5000000000001C520.8333333333333 379.1666666666668 512.5 375 500 375z" />
    <glyph glyph-name="check_square"
      unicode="&#x63;&#x68;&#x65;&#x63;&#x6B;&#x5F;&#x73;&#x71;&#x75;&#x61;&#x72;&#x65;"
      horiz-adv-x="1000" d="M500 375C487.4999999999999 375 479.1666666666666 379.1666666666668 470.8333333333333 387.5000000000001L345.8333333333334 512.5C329.1666666666667 529.1666666666667 329.1666666666667 554.1666666666667 345.8333333333334 570.8333333333335S387.5 587.5 404.1666666666667 570.8333333333335L500 475.0000000000001L887.5 862.5000000000001C904.1666666666666 879.1666666666667 929.1666666666666 879.1666666666667 945.8333333333331 862.5000000000001S962.4999999999998 820.8333333333335 945.8333333333331 804.1666666666667L529.1666666666666 387.5000000000001C520.8333333333333 379.1666666666668 512.5 375 500 375zM791.6666666666666 83.3333333333334H208.3333333333333C137.5 83.3333333333334 83.3333333333333 137.5000000000001 83.3333333333333 208.3333333333334V791.6666666666667C83.3333333333333 862.5 137.5 916.6666666666666 208.3333333333333 916.6666666666666H666.6666666666666C691.6666666666667 916.6666666666666 708.3333333333333 900 708.3333333333333 875S691.6666666666667 833.3333333333334 666.6666666666666 833.3333333333334H208.3333333333333C183.3333333333334 833.3333333333334 166.6666666666667 816.6666666666666 166.6666666666667 791.6666666666667V208.3333333333334C166.6666666666667 183.3333333333334 183.3333333333334 166.6666666666668 208.3333333333333 166.6666666666668H791.6666666666666C816.6666666666666 166.6666666666668 833.3333333333333 183.3333333333334 833.3333333333333 208.3333333333334V500C833.3333333333333 525 849.9999999999999 541.6666666666667 875 541.6666666666667S916.6666666666666 525 916.6666666666666 500V208.3333333333334C916.6666666666666 137.5000000000001 862.4999999999999 83.3333333333334 791.6666666666666 83.3333333333334z" />
    <glyph glyph-name="check"
      unicode="&#x63;&#x68;&#x65;&#x63;&#x6B;"
      horiz-adv-x="1000" d="M375 250C362.5 250 354.1666666666667 254.1666666666668 345.8333333333334 262.5000000000001L137.5 470.8333333333334C120.8333333333334 487.5000000000001 120.8333333333334 512.5 137.5 529.1666666666667S179.1666666666667 545.8333333333335 195.8333333333334 529.1666666666667L375 350L804.1666666666666 779.1666666666667C820.8333333333333 795.8333333333334 845.8333333333334 795.8333333333334 862.4999999999999 779.1666666666667S879.1666666666665 737.5 862.4999999999999 720.8333333333334L404.1666666666667 262.5000000000001C395.8333333333333 254.1666666666668 387.5 250 375 250z" />
    <glyph glyph-name="chevron_down"
      unicode="&#x63;&#x68;&#x65;&#x76;&#x72;&#x6F;&#x6E;&#x5F;&#x64;&#x6F;&#x77;&#x6E;"
      horiz-adv-x="1000" d="M500 333.3333333333334C487.4999999999999 333.3333333333334 479.1666666666666 337.5 470.8333333333333 345.8333333333334L220.8333333333334 595.8333333333334C204.1666666666667 612.5 204.1666666666667 637.5 220.8333333333334 654.1666666666667S262.5 670.8333333333335 279.1666666666667 654.1666666666667L500 433.3333333333335L720.8333333333334 654.1666666666667C737.4999999999999 670.8333333333335 762.5 670.8333333333335 779.1666666666666 654.1666666666667S795.8333333333331 612.5000000000001 779.1666666666666 595.8333333333335L529.1666666666666 345.8333333333335C520.8333333333333 337.5 512.5 333.3333333333334 500 333.3333333333334z" />
    <glyph glyph-name="chevron_left"
      unicode="&#x63;&#x68;&#x65;&#x76;&#x72;&#x6F;&#x6E;&#x5F;&#x6C;&#x65;&#x66;&#x74;"
      horiz-adv-x="1000" d="M625 208.3333333333334C612.4999999999999 208.3333333333334 604.1666666666666 212.5000000000001 595.8333333333334 220.8333333333334L345.8333333333334 470.8333333333334C329.1666666666667 487.5000000000001 329.1666666666667 512.5 345.8333333333334 529.1666666666667L595.8333333333334 779.1666666666667C612.5 795.8333333333334 637.5 795.8333333333334 654.1666666666666 779.1666666666667S670.8333333333334 737.5 654.1666666666666 720.8333333333334L433.3333333333333 500L654.1666666666666 279.1666666666667C670.8333333333333 262.5000000000001 670.8333333333333 237.5 654.1666666666666 220.8333333333334C645.8333333333333 212.5000000000001 637.5 208.3333333333334 625 208.3333333333334z" />
    <glyph glyph-name="chevron_right"
      unicode="&#x63;&#x68;&#x65;&#x76;&#x72;&#x6F;&#x6E;&#x5F;&#x72;&#x69;&#x67;&#x68;&#x74;"
      horiz-adv-x="1000" d="M375 208.3333333333334C362.5 208.3333333333334 354.1666666666667 212.5000000000001 345.8333333333334 220.8333333333334C329.1666666666667 237.5 329.1666666666667 262.5000000000001 345.8333333333334 279.1666666666667L566.6666666666667 500L345.8333333333334 720.8333333333333C329.1666666666667 737.5 329.1666666666667 762.5 345.8333333333334 779.1666666666666S387.5 795.8333333333334 404.1666666666667 779.1666666666666L654.1666666666666 529.1666666666667C670.8333333333334 512.5 670.8333333333334 487.5 654.1666666666666 470.8333333333334L404.1666666666667 220.8333333333333C395.8333333333333 212.5000000000001 387.5 208.3333333333334 375 208.3333333333334z" />
    <glyph glyph-name="chevron_up"
      unicode="&#x63;&#x68;&#x65;&#x76;&#x72;&#x6F;&#x6E;&#x5F;&#x75;&#x70;"
      horiz-adv-x="1000" d="M750 333.3333333333334C737.4999999999999 333.3333333333334 729.1666666666666 337.5 720.8333333333334 345.8333333333334L500 566.6666666666667L279.1666666666667 345.8333333333334C262.5 329.1666666666668 237.5 329.1666666666668 220.8333333333334 345.8333333333334S204.1666666666667 387.5000000000001 220.8333333333334 404.1666666666668L470.8333333333333 654.1666666666667C487.5 670.8333333333335 512.5 670.8333333333335 529.1666666666666 654.1666666666667L779.1666666666667 404.1666666666668C795.8333333333334 387.5000000000001 795.8333333333334 362.5000000000001 779.1666666666667 345.8333333333334C770.8333333333333 337.5 762.5 333.3333333333334 750 333.3333333333334z" />
    <glyph glyph-name="chevrons_down"
      unicode="&#x63;&#x68;&#x65;&#x76;&#x72;&#x6F;&#x6E;&#x73;&#x5F;&#x64;&#x6F;&#x77;&#x6E;"
      horiz-adv-x="1000" d="M500 208.3333333333334C487.4999999999999 208.3333333333334 479.1666666666666 212.5000000000001 470.8333333333333 220.8333333333334L262.5 429.1666666666668C245.8333333333334 445.8333333333334 245.8333333333334 470.8333333333334 262.5 487.5000000000001S304.1666666666667 504.1666666666667 320.8333333333334 487.5000000000001L500 308.3333333333335L679.1666666666666 487.5000000000001C695.8333333333333 504.1666666666669 720.8333333333334 504.1666666666669 737.4999999999999 487.5000000000001S754.1666666666665 445.8333333333335 737.4999999999999 429.1666666666669L529.1666666666666 220.8333333333336C520.8333333333333 212.5000000000001 512.5 208.3333333333334 500 208.3333333333334zM500 500C487.4999999999999 500 479.1666666666666 504.1666666666667 470.8333333333333 512.5L262.5 720.8333333333334C245.8333333333334 737.5 245.8333333333334 762.5 262.5 779.1666666666667S304.1666666666667 795.8333333333334 320.8333333333334 779.1666666666667L500 600L679.1666666666666 779.1666666666667C695.8333333333333 795.8333333333334 720.8333333333334 795.8333333333334 737.4999999999999 779.1666666666667S754.1666666666665 737.5 737.4999999999999 720.8333333333334L529.1666666666666 512.5C520.8333333333333 504.1666666666667 512.5 500 500 500z" />
    <glyph glyph-name="chevrons_left"
      unicode="&#x63;&#x68;&#x65;&#x76;&#x72;&#x6F;&#x6E;&#x73;&#x5F;&#x6C;&#x65;&#x66;&#x74;"
      horiz-adv-x="1000" d="M458.3333333333333 250C445.8333333333333 250 437.5 254.1666666666668 429.1666666666667 262.5000000000001L220.8333333333334 470.8333333333334C204.1666666666667 487.5000000000001 204.1666666666667 512.5 220.8333333333334 529.1666666666667L429.1666666666667 737.5C445.8333333333334 754.1666666666667 470.8333333333333 754.1666666666667 487.5 737.5S504.1666666666667 695.8333333333334 487.5 679.1666666666667L308.3333333333333 500L487.4999999999999 320.8333333333334C504.1666666666666 304.1666666666668 504.1666666666666 279.1666666666667 487.4999999999999 262.5000000000001C479.1666666666666 254.1666666666668 470.8333333333333 250 458.3333333333333 250zM750 250C737.4999999999999 250 729.1666666666666 254.1666666666668 720.8333333333334 262.5000000000001L512.5 470.8333333333334C495.8333333333333 487.5000000000001 495.8333333333333 512.5 512.5 529.1666666666667L720.8333333333334 737.5C737.4999999999999 754.1666666666667 762.5 754.1666666666667 779.1666666666666 737.5S795.8333333333331 695.8333333333334 779.1666666666666 679.1666666666667L600 500L779.1666666666666 320.8333333333334C795.8333333333331 304.1666666666668 795.8333333333331 279.1666666666667 779.1666666666666 262.5000000000001C770.8333333333333 254.1666666666668 762.5 250 750 250z" />
    <glyph glyph-name="chevrons_right"
      unicode="&#x63;&#x68;&#x65;&#x76;&#x72;&#x6F;&#x6E;&#x73;&#x5F;&#x72;&#x69;&#x67;&#x68;&#x74;"
      horiz-adv-x="1000" d="M541.6666666666666 250C529.1666666666666 250 520.8333333333333 254.1666666666668 512.5 262.5000000000001C495.8333333333333 279.1666666666667 495.8333333333333 304.1666666666668 512.5 320.8333333333334L691.6666666666667 500L512.5 679.1666666666667C495.8333333333333 695.8333333333334 495.8333333333333 720.8333333333333 512.5 737.5S554.1666666666666 754.1666666666666 570.8333333333334 737.5L779.1666666666667 529.1666666666667C795.8333333333334 512.5 795.8333333333334 487.5 779.1666666666667 470.8333333333334L570.8333333333334 262.4999999999999C562.5 254.1666666666668 554.1666666666666 250 541.6666666666666 250zM250 250C237.5 250 229.1666666666667 254.1666666666668 220.8333333333333 262.5000000000001C204.1666666666666 279.1666666666667 204.1666666666666 304.1666666666668 220.8333333333333 320.8333333333334L400 500L220.8333333333333 679.1666666666667C204.1666666666666 695.8333333333334 204.1666666666666 720.8333333333333 220.8333333333333 737.5S262.5 754.1666666666666 279.1666666666667 737.5L487.4999999999999 529.1666666666667C504.1666666666666 512.5 504.1666666666666 487.5 487.4999999999999 470.8333333333334L279.1666666666667 262.4999999999999C270.8333333333333 254.1666666666668 262.5 250 250 250z" />
    <glyph glyph-name="chevrons_up"
      unicode="&#x63;&#x68;&#x65;&#x76;&#x72;&#x6F;&#x6E;&#x73;&#x5F;&#x75;&#x70;"
      horiz-adv-x="1000" d="M708.3333333333333 500C695.8333333333333 500 687.5 504.1666666666667 679.1666666666666 512.5L500 691.6666666666667L320.8333333333333 512.5C304.1666666666667 495.8333333333334 279.1666666666667 495.8333333333334 262.5 512.5S245.8333333333334 554.1666666666667 262.5 570.8333333333335L470.8333333333333 779.1666666666667C487.5 795.8333333333334 512.5 795.8333333333334 529.1666666666666 779.1666666666667L737.5000000000001 570.8333333333335C754.1666666666666 554.1666666666667 754.1666666666666 529.1666666666667 737.5000000000001 512.5C729.1666666666666 504.1666666666667 720.8333333333334 500 708.3333333333333 500zM708.3333333333333 208.3333333333334C695.8333333333333 208.3333333333334 687.5 212.5000000000001 679.1666666666666 220.8333333333334L500 400L320.8333333333333 220.8333333333334C304.1666666666667 204.1666666666669 279.1666666666667 204.1666666666669 262.5 220.8333333333334S245.8333333333334 262.5000000000001 262.5 279.1666666666667L470.8333333333333 487.5C487.5 504.1666666666667 512.5 504.1666666666667 529.1666666666666 487.5L737.5000000000001 279.1666666666667C754.1666666666666 262.5000000000001 754.1666666666666 237.5 737.5000000000001 220.8333333333334C729.1666666666666 212.5000000000001 720.8333333333334 208.3333333333334 708.3333333333333 208.3333333333334z" />
    <glyph glyph-name="chrome"
      unicode="&#x63;&#x68;&#x72;&#x6F;&#x6D;&#x65;"
      horiz-adv-x="1000" d="M500 41.6666666666667C245.8333333333334 41.6666666666667 41.6666666666667 245.8333333333334 41.6666666666667 500S245.8333333333334 958.3333333333334 500 958.3333333333334S958.3333333333331 754.1666666666666 958.3333333333331 500S754.1666666666666 41.6666666666667 500 41.6666666666667zM500 875C291.6666666666667 875 125 708.3333333333334 125 500C125 291.6666666666668 291.6666666666667 125 500 125C708.3333333333333 125 875 291.6666666666668 875 500C875 708.3333333333334 708.3333333333333 875 500 875zM500 291.6666666666668C383.3333333333333 291.6666666666668 291.6666666666667 383.3333333333334 291.6666666666667 500S383.3333333333333 708.3333333333334 500 708.3333333333334S708.3333333333333 616.6666666666667 708.3333333333333 500S616.6666666666666 291.6666666666668 500 291.6666666666668zM500 625C429.1666666666667 625 375 570.8333333333333 375 500S429.1666666666667 375 500 375S625 429.1666666666668 625 500S570.8333333333333 625 500 625zM883.3333333333333 625H500C475 625 458.3333333333333 641.6666666666667 458.3333333333333 666.6666666666667S475 708.3333333333334 500 708.3333333333334H883.3333333333333C908.3333333333331 708.3333333333334 924.9999999999998 691.6666666666667 924.9999999999998 666.6666666666667S904.1666666666666 625 883.3333333333333 625zM354.1666666666667 375C341.6666666666667 375 325 383.3333333333334 316.6666666666667 395.8333333333334L129.1666666666667 725C116.6666666666667 745.8333333333334 125 770.8333333333334 141.6666666666667 783.3333333333334C162.5 795.8333333333334 187.5 787.5 200 766.6666666666666L391.6666666666666 437.5C404.1666666666667 416.6666666666668 395.8333333333333 391.6666666666668 375 379.1666666666668C370.8333333333333 375 362.5 375 354.1666666666667 375zM454.1666666666666 45.8333333333335C445.8333333333334 45.8333333333335 441.6666666666667 45.8333333333335 433.3333333333333 50.0000000000002C412.5 62.5000000000002 408.3333333333333 87.5000000000001 416.6666666666667 108.3333333333335L608.3333333333333 437.5000000000001C620.8333333333333 458.3333333333335 645.8333333333333 462.5000000000001 666.6666666666666 454.1666666666667C687.5 441.6666666666668 691.6666666666667 416.6666666666668 683.3333333333333 395.8333333333335L491.6666666666666 66.6666666666667C483.3333333333333 50 466.6666666666666 45.8333333333335 454.1666666666666 45.8333333333335z" />
    <glyph glyph-name="circle"
      unicode="&#x63;&#x69;&#x72;&#x63;&#x6C;&#x65;"
      horiz-adv-x="1000" d="M500 41.6666666666667C245.8333333333334 41.6666666666667 41.6666666666667 245.8333333333334 41.6666666666667 500S245.8333333333334 958.3333333333334 500 958.3333333333334S958.3333333333331 754.1666666666666 958.3333333333331 500S754.1666666666666 41.6666666666667 500 41.6666666666667zM500 875C291.6666666666667 875 125 708.3333333333334 125 500C125 291.6666666666668 291.6666666666667 125 500 125C708.3333333333333 125 875 291.6666666666668 875 500C875 708.3333333333334 708.3333333333333 875 500 875z" />
    <glyph glyph-name="clipboard"
      unicode="&#x63;&#x6C;&#x69;&#x70;&#x62;&#x6F;&#x61;&#x72;&#x64;"
      horiz-adv-x="1000" d="M750 41.6666666666667H250C179.1666666666667 41.6666666666667 125 95.8333333333334 125 166.6666666666668V750C125 820.8333333333334 179.1666666666667 875 250 875H333.3333333333333C358.3333333333333 875 375 858.3333333333334 375 833.3333333333334S358.3333333333333 791.6666666666667 333.3333333333333 791.6666666666667H250C225 791.6666666666667 208.3333333333333 775 208.3333333333333 750V166.6666666666668C208.3333333333333 141.6666666666666 225 125 250 125H750C775 125 791.6666666666666 141.6666666666666 791.6666666666666 166.6666666666668V750C791.6666666666666 775 775 791.6666666666667 750 791.6666666666667H666.6666666666666C641.6666666666666 791.6666666666667 625 808.3333333333334 625 833.3333333333334S641.6666666666666 875 666.6666666666666 875H750C820.8333333333333 875 875 820.8333333333334 875 750V166.6666666666668C875 95.8333333333334 820.8333333333333 41.6666666666667 750 41.6666666666667zM625 708.3333333333334H375C329.1666666666667 708.3333333333334 291.6666666666667 745.8333333333334 291.6666666666667 791.6666666666667V875C291.6666666666667 920.8333333333334 329.1666666666667 958.3333333333334 375 958.3333333333334H625C670.8333333333334 958.3333333333334 708.3333333333333 920.8333333333334 708.3333333333333 875V791.6666666666667C708.3333333333333 745.8333333333334 670.8333333333334 708.3333333333334 625 708.3333333333334zM375 875L375 875V791.6666666666667H625V875H375z" />
    <glyph glyph-name="clock"
      unicode="&#x63;&#x6C;&#x6F;&#x63;&#x6B;"
      horiz-adv-x="1000" d="M500 41.6666666666667C245.8333333333334 41.6666666666667 41.6666666666667 245.8333333333334 41.6666666666667 500S245.8333333333334 958.3333333333334 500 958.3333333333334S958.3333333333331 754.1666666666666 958.3333333333331 500S754.1666666666666 41.6666666666667 500 41.6666666666667zM500 875C291.6666666666667 875 125 708.3333333333334 125 500C125 291.6666666666668 291.6666666666667 125 500 125C708.3333333333333 125 875 291.6666666666668 875 500C875 708.3333333333334 708.3333333333333 875 500 875zM666.6666666666666 375C658.3333333333334 375 654.1666666666666 375 650 379.1666666666668L483.3333333333333 462.5C466.6666666666666 470.8333333333334 458.3333333333333 483.3333333333334 458.3333333333333 500V750C458.3333333333333 775 475 791.6666666666667 500 791.6666666666667S541.6666666666666 775 541.6666666666666 750V525L683.3333333333333 454.1666666666667C704.1666666666665 445.8333333333334 712.4999999999999 420.8333333333334 699.9999999999999 400C695.8333333333333 383.3333333333334 683.3333333333333 375 666.6666666666666 375z" />
    <glyph glyph-name="cloud_drizzle"
      unicode="&#x63;&#x6C;&#x6F;&#x75;&#x64;&#x5F;&#x64;&#x72;&#x69;&#x7A;&#x7A;&#x6C;&#x65;"
      horiz-adv-x="1000" d="M333.3333333333333 83.3333333333334C308.3333333333333 83.3333333333334 291.6666666666667 100 291.6666666666667 125V208.3333333333334C291.6666666666667 233.3333333333335 308.3333333333333 250 333.3333333333333 250S375 233.3333333333335 375 208.3333333333334V125C375 100 358.3333333333333 83.3333333333334 333.3333333333333 83.3333333333334zM333.3333333333333 333.3333333333334C308.3333333333333 333.3333333333334 291.6666666666667 350 291.6666666666667 375V458.3333333333334C291.6666666666667 483.3333333333334 308.3333333333333 500 333.3333333333333 500S375 483.3333333333334 375 458.3333333333334V375C375 350 358.3333333333333 333.3333333333334 333.3333333333333 333.3333333333334zM666.6666666666666 83.3333333333334C641.6666666666666 83.3333333333334 625 100 625 125V208.3333333333334C625 233.3333333333335 641.6666666666666 250 666.6666666666666 250S708.3333333333333 233.3333333333335 708.3333333333333 208.3333333333334V125C708.3333333333333 100 691.6666666666667 83.3333333333334 666.6666666666666 83.3333333333334zM666.6666666666666 333.3333333333334C641.6666666666666 333.3333333333334 625 350 625 375V458.3333333333334C625 483.3333333333334 641.6666666666666 500 666.6666666666666 500S708.3333333333333 483.3333333333334 708.3333333333333 458.3333333333334V375C708.3333333333333 350 691.6666666666667 333.3333333333334 666.6666666666666 333.3333333333334zM500 0C475 0 458.3333333333333 16.6666666666666 458.3333333333333 41.6666666666667V125C458.3333333333333 150.0000000000001 475 166.6666666666668 500 166.6666666666668S541.6666666666666 150.0000000000001 541.6666666666666 125V41.6666666666667C541.6666666666666 16.6666666666666 525 0 500 0zM500 250C475 250 458.3333333333333 266.6666666666667 458.3333333333333 291.6666666666668V375C458.3333333333333 400 475 416.6666666666668 500 416.6666666666668S541.6666666666666 400 541.6666666666666 375V291.6666666666668C541.6666666666666 266.6666666666667 525 250 500 250zM833.3333333333333 266.6666666666667C816.6666666666666 266.6666666666667 799.9999999999999 275 795.8333333333334 291.6666666666668C787.5 312.5 795.8333333333334 337.5 816.6666666666666 345.8333333333334C858.3333333333334 362.5000000000001 887.5 395.8333333333334 904.1666666666669 437.5C920.8333333333334 479.1666666666667 920.8333333333334 525 904.1666666666669 566.6666666666667C875 629.1666666666667 816.6666666666666 666.6666666666667 750 666.6666666666667H695.8333333333333C674.9999999999999 666.6666666666667 658.3333333333333 679.1666666666667 654.1666666666666 700C633.3333333333333 779.1666666666666 587.5 841.6666666666666 516.6666666666666 879.1666666666666C454.1666666666666 916.6666666666666 375 925 304.1666666666667 904.1666666666669C145.8333333333333 858.3333333333334 54.1666666666667 704.1666666666667 91.6666666666667 550C108.3333333333333 487.5 141.6666666666667 433.3333333333333 191.6666666666666 400C208.3333333333333 387.5 216.6666666666666 362.5 200 341.6666666666667C187.5 325.0000000000001 162.5 316.6666666666667 141.6666666666667 333.3333333333334C75 379.1666666666668 29.1666666666667 450.0000000000001 8.3333333333333 533.3333333333334C-41.6666666666667 729.1666666666667 79.1666666666667 929.1666666666666 279.1666666666667 987.5C375 1012.5 475 1000 562.5 950C641.6666666666666 904.1666666666669 700 833.3333333333334 729.1666666666666 750H750C849.9999999999999 750 937.5 691.6666666666667 979.1666666666666 600C1004.1666666666666 537.5 1008.3333333333331 470.8333333333334 983.3333333333334 408.3333333333334C958.3333333333331 345.8333333333334 912.5 295.8333333333335 850 270.8333333333334C845.8333333333334 266.6666666666667 837.5 266.6666666666667 833.3333333333333 266.6666666666667z" />
    <glyph glyph-name="cloud_lightning"
      unicode="&#x63;&#x6C;&#x6F;&#x75;&#x64;&#x5F;&#x6C;&#x69;&#x67;&#x68;&#x74;&#x6E;&#x69;&#x6E;&#x67;"
      horiz-adv-x="1000" d="M791.6666666666666 254.1666666666668C770.8333333333333 254.1666666666668 754.1666666666666 266.6666666666668 750 287.5000000000001C745.8333333333333 308.3333333333335 758.3333333333333 333.3333333333335 783.3333333333334 337.5000000000001C875 354.1666666666668 933.3333333333334 445.8333333333334 912.5 533.3333333333334C895.8333333333333 612.5 829.1666666666665 666.6666666666667 750 666.6666666666667C750 666.6666666666667 750 666.6666666666667 750 666.6666666666667H695.8333333333333C674.9999999999999 666.6666666666667 658.3333333333333 679.1666666666667 654.1666666666666 700C612.4999999999999 854.1666666666667 454.1666666666666 950 300 908.3333333333334C225 887.5 162.5 841.6666666666667 125 775C83.3333333333333 704.1666666666667 70.8333333333333 629.1666666666667 91.6666666666667 550C112.5 470.8333333333334 162.5 408.3333333333334 233.3333333333333 366.6666666666667C254.1666666666667 358.3333333333334 262.5 333.3333333333334 250 312.5C237.5 291.6666666666668 212.5 283.3333333333334 191.6666666666666 295.8333333333335C100 345.8333333333334 37.5 429.1666666666668 8.3333333333333 529.1666666666667C-16.6666666666667 625 -4.1666666666667 729.1666666666667 50 812.5C100 900 183.3333333333333 958.3333333333334 279.1666666666667 983.3333333333334C466.6666666666666 1033.3333333333333 662.4999999999999 925 724.9999999999999 745.8333333333334H750C750 745.8333333333334 750 745.8333333333334 750 745.8333333333334C866.6666666666666 745.8333333333334 970.8333333333331 662.5 995.8333333333331 545.8333333333335C1024.9999999999998 412.5000000000001 937.5 279.1666666666669 799.9999999999999 250C795.8333333333334 254.1666666666668 795.8333333333334 254.1666666666668 791.6666666666666 254.1666666666668zM458.3333333333333 0C450 0 441.6666666666667 4.1666666666667 433.3333333333333 8.3333333333334C412.5 20.8333333333334 408.3333333333333 45.8333333333333 420.8333333333333 66.6666666666666L545.8333333333333 250H375C358.3333333333333 250 345.8333333333334 258.3333333333334 337.5 270.8333333333334C329.1666666666667 283.3333333333334 329.1666666666667 300 337.5 312.5L504.1666666666666 562.5C516.6666666666666 583.3333333333334 541.6666666666666 587.5 562.5 575C583.3333333333333 562.5 587.5 537.5 575 516.6666666666667L450 333.3333333333334H625C641.6666666666666 333.3333333333334 654.1666666666666 325.0000000000001 662.5 312.5S670.8333333333334 283.3333333333334 662.5 270.8333333333334L495.8333333333333 20.8333333333334C483.3333333333333 8.3333333333334 470.8333333333333 0 458.3333333333333 0z" />
    </font>
</defs>
</svg>
